<?xml version="1.0" standalone="no"?>
<!DOCTYPE svg PUBLIC "-//W3C//DTD SVG 1.1//EN" "http://www.w3.org/Graphics/SVG/1.1/DTD/svg11.dtd" >
<svg xmlns="http://www.w3.org/2000/svg">
<metadata></metadata>
<defs>
<font id="aliquamultralight" horiz-adv-x="1089" >
<font-face units-per-em="2048" ascent="1638" descent="-410" />
<missing-glyph horiz-adv-x="419" />
<glyph horiz-adv-x="2048" />
<glyph horiz-adv-x="2048" />
<glyph unicode="&#xd;" horiz-adv-x="419" />
<glyph unicode=" "  horiz-adv-x="419" />
<glyph unicode="&#x09;" horiz-adv-x="419" />
<glyph unicode="&#xa0;" horiz-adv-x="419" />
<glyph unicode="!" horiz-adv-x="225" d="M76 0v203h41v-203h-41zM76 377v1100h41v-1100h-41z" />
<glyph unicode="&#x22;" horiz-adv-x="434" d="M80 1012v465h41v-465h-41zM309 1012v465h41v-465h-41z" />
<glyph unicode="#" horiz-adv-x="1038" d="M20 473v41h267l49 367h-258v41h268l64 485h41l-64 -485h350l64 485h41l-64 -485h238v-41h-248l-49 -367h239v-41h-247l-64 -473h-41l64 473h-353l-63 -473h-41l63 473h-256zM328 514h350l49 367h-350z" />
<glyph unicode="$" horiz-adv-x="1163" d="M37 489h41q0 -465 489 -481v737q-242 53 -327 103q-160 92 -160 282q0 195 153 295q127 84 334 86v91h41v-93q469 -10 488 -446h-41q-12 395 -447 405v-690q283 -72 353 -110q163 -95 163 -306q0 -197 -166 -305q-143 -92 -350 -92v-182h-41v184q-250 10 -387 139 q-143 135 -143 383zM121 1130q0 -168 149 -249q78 -46 297 -93v682q-184 -2 -303 -75q-143 -90 -143 -265zM608 6q190 0 322 82q153 99 153 277q0 184 -155 270q-74 41 -320 100v-729z" />
<glyph unicode="%" horiz-adv-x="1417" d="M51 1073q0 154 76 252q84 106 235 107q152 0 238 -105q80 -96 80 -252q0 -150 -86 -250t-232 -100q-150 0 -233 102q-78 94 -78 246zM92 1073q0 -133 68 -217q72 -90 202 -90q129 0 203 88t74 219q0 143 -66 225q-74 92 -211 93q-137 0 -206 -93q-63 -84 -64 -225z M188 -70l975 1547h47l-974 -1547h-48zM739 326q0 154 76 252q84 104 236 104t237 -102q80 -96 80 -252q0 -150 -84 -248q-88 -104 -233 -105q-150 0 -234 103q-78 96 -78 248zM780 326q0 -133 68 -217q72 -92 203 -93q129 0 204 93q72 86 72 217q0 141 -69.5 228t-206.5 87 t-207 -92q-63 -82 -64 -223z" />
<glyph unicode="&#x26;" horiz-adv-x="1161" d="M49 332q0 156 131 289q74 76 262 194q-70 90 -137 180q-80 117 -80 207q0 125 86 200t213 75t213 -75t86 -200t-108 -233q-33 -33 -213 -164l385 -492q49 111 59 365h41q-10 -262 -72 -404l215 -274h-53l-182 233q-145 -268 -428 -268q-164 0 -287 101q-131 106 -131 266 zM90 332q0 -147 117 -240q109 -86 260 -86q270 0 401 266l-401 510q-190 -121 -250 -180q-127 -121 -127 -270zM266 1206q0 -78 80 -196q12 -20 131 -174q147 100 199 151q106 104 106 215q0 104 -74.5 169t-181.5 65q-109 0 -184.5 -61.5t-75.5 -168.5z" />
<glyph unicode="'" horiz-adv-x="233" d="M80 1012v465h41v-465h-41z" />
<glyph unicode="(" horiz-adv-x="327" d="M23 584q0 485 237 927h41q-238 -442 -238 -927q0 -509 240 -951h-41q-240 469 -239 951z" />
<glyph unicode=")" horiz-adv-x="329" d="M27 1511h41q239 -467 239 -948q0 -483 -237 -930h-41q238 446 237 930q0 510 -239 948z" />
<glyph unicode="*" horiz-adv-x="626" d="M18 1237l13 39l258 -88v289h41v-289l270 88l8 -39l-266 -88l170 -227l-33 -25l-170 223l-172 -215l-33 29l181 215z" />
<glyph unicode="+" horiz-adv-x="1036" d="M2 502v43h496v502h41v-502h495v-43h-495v-502h-41v502h-496z" />
<glyph unicode="," horiz-adv-x="163" d="M20 -205q53 53 54 252q0 37 -2 90t-2 66h41v-203q0 -182 -91 -246v41z" />
<glyph unicode="-" horiz-adv-x="522" d="M80 535v40h358v-40h-358z" />
<glyph unicode="." horiz-adv-x="233" d="M80 0v203h41v-203h-41z" />
<glyph unicode="/" horiz-adv-x="714" d="M2 -35l670 1546h41l-670 -1546h-41z" />
<glyph unicode="0" horiz-adv-x="1171" d="M59 702q0 299 111 492q137 238 416 238q276 0 413 -238q113 -193 113 -492t-113 -489q-137 -238 -413 -238q-279 0 -416 238q-111 190 -111 489zM100 702q0 -281 101 -460q125 -225 385 -226q258 0 383 226q102 179 102 460t-100 461q-127 227 -385 228q-260 0 -385 -228 q-100 -180 -101 -461z" />
<glyph unicode="1" horiz-adv-x="497" d="M0 1104v43l371 260h45v-1407h-41v1354h-4z" />
<glyph unicode="2" horiz-adv-x="1013" d="M59 0q0 190 224 375q207 152 413 303q223 184 224 375q0 162 -115 254q-106 84 -273 84q-205 0 -309 -123q-98 -115 -98 -322h-41q0 225 112.5 355.5t335.5 130.5q184 0 302 -95q127 -102 127 -284q0 -201 -216 -389q-201 -147 -403 -297q-225 -172 -242 -326h897v-41 h-938z" />
<glyph unicode="3" horiz-adv-x="1097" d="M59 434l2 41h41l-2 -45q-10 -201 129 -311q129 -102 338 -103q176 0 297 97q133 104 133 276q0 213 -157 293q-111 55 -342 55v41q215 0 317 47q156 70 156 260q0 154 -127 236q-106 70 -269 70q-205 0 -319.5 -108.5t-114.5 -311.5h-41q0 221 126 341t349 120 q182 0 299 -80q137 -92 138 -267q0 -137 -82 -225t-217 -100v-4q150 -14 237.5 -113.5t87.5 -253.5q0 -188 -145 -305q-133 -109 -326 -109q-227 0 -368 115q-152 125 -140 344z" />
<glyph unicode="4" horiz-adv-x="1028" d="M4 367v49l696 991h52v-999h252v-41h-252v-367h-41v367h-707zM45 408h666v942h-4z" />
<glyph unicode="5" horiz-adv-x="1044" d="M51 451h41q0 -203 120 -319t323 -116q201 0 320.5 124t119.5 327q0 197 -122 320.5t-318 123.5q-123 0 -226 -53q-109 -59 -164 -162h-51l150 711h714v-41h-682l-126 -602h4q117 190 381 190q213 0 347 -137t134 -350q0 -219 -132 -355.5t-349 -136.5q-221 0 -352.5 128 t-131.5 348z" />
<glyph unicode="6" horiz-adv-x="1093" d="M59 664q0 307 107 510q137 258 418 258q164 0 284.5 -97.5t145.5 -259.5h-41q-33 150 -136.5 233t-254.5 83q-279 0 -398 -279q-86 -199 -86 -518h4q31 154 163 254t292 100q199 0 340 -144t141 -343q0 -201 -141 -343.5t-340 -142.5q-498 0 -498 689zM117 461 q0 -182 128 -313.5t312 -131.5q182 0 311 131.5t129 313.5t-129 313t-311 131q-184 0 -312 -131t-128 -313z" />
<glyph unicode="7" horiz-adv-x="1056" d="M160 1366v41h889v-55q-307 -307 -457 -613q-172 -346 -172 -739h-41q0 739 625 1366h-844z" />
<glyph unicode="8" horiz-adv-x="1122" d="M55 393q0 162 96.5 263.5t260.5 115.5v4q-121 16 -204 98t-83 201q0 182 131 275q115 82 305 82q188 0 303 -82q133 -92 133 -275q0 -119 -83 -200.5t-203 -98.5v-4q162 -14 259 -115.5t97 -263.5q0 -209 -154 -319q-135 -98 -352 -99q-217 0 -354 99q-152 111 -152 319z M96 393q0 -190 142 -291q125 -86 323 -86q199 0 322 86q143 101 143 291q0 188 -145 281q-119 76 -320 76t-321 -76q-143 -92 -144 -281zM166 1075q0 -141 131 -219q111 -66 264 -65q152 0 262 65q133 78 133 219q0 164 -120 246q-104 70 -275 70q-172 0 -276 -70 q-119 -82 -119 -246z" />
<glyph unicode="9" horiz-adv-x="1095" d="M55 946q0 201 140.5 343.5t341.5 142.5q499 -1 499 -689q0 -307 -108 -510q-137 -258 -418 -258q-166 0 -287 97.5t-143 259.5h41q33 -150 135 -233t256 -83q276 0 397 279q86 199 86 518h-4q-33 -154 -164 -254t-290 -100q-199 0 -340.5 144.5t-141.5 342.5zM96 946 q0 -184 129 -315t312 -131q184 0 312 131t128 315q0 182 -129 313.5t-311 131.5t-311.5 -131.5t-129.5 -313.5z" />
<glyph unicode=":" horiz-adv-x="141" d="M80 0v203h41v-203h-41zM80 860v203h41v-203h-41z" />
<glyph unicode=";" horiz-adv-x="157" d="M6 -205q53 53 53 252q0 37 -2 90t-2 66h41v-203q0 -182 -90 -246v41zM55 860v203h41v-203h-41z" />
<glyph unicode="&#x3c;" horiz-adv-x="1099" d="M2 498v51l1040 514v-43l-1003 -496l1003 -497v-43z" />
<glyph unicode="=" horiz-adv-x="1075" d="M20 301v43h1033v-43h-1033zM20 702v43h1033v-43h-1033z" />
<glyph unicode="&#x3e;" horiz-adv-x="1099" d="M57 -16v43l1004 497l-1004 496v43l1041 -514v-51z" />
<glyph unicode="?" horiz-adv-x="884" d="M70 1020q-55 219 55 350q121 141 334 141q168 0 280 -84q123 -94 123 -258q0 -156 -104 -274q-98 -100 -195 -199q-104 -131 -104 -319h-41q0 195 104 332q96 100 195 200q104 117 104 260q0 147 -110 230q-98 72 -252 71q-199 0 -305 -129q-98 -119 -43 -321h-41zM418 0 v203h41v-203h-41z" />
<glyph unicode="@" horiz-adv-x="1517" d="M55 731q0 311 215 526.5t527 215.5q283 0 469 -168q194 -176 194 -455q0 -193 -121 -375q-137 -203 -321 -203q-57 0 -89 37t-32 94h-4q-92 -131 -279 -131q-121 0 -200 93q-78 86 -78 208q0 213 135 398q145 201 350 200q92 0 173 -46t108 -130h4l49 135h43 q-74 -186 -149 -372q-113 -293 -113 -363q0 -80 86 -80q166 0 289 191q109 170 108 344q0 260 -182 424q-176 158 -440 158q-293 0 -497 -204t-204 -497q0 -317 192.5 -516t508.5 -199q176 0 336 93q156 86 258 235h47q-100 -166 -274.5 -267.5t-366.5 -101.5 q-334 0 -538 210t-204 546zM377 573q0 -109 69.5 -183.5t176.5 -74.5q139 0 237 115q74 86 135 254q45 129 88 260q-49 184 -270 184q-182 0 -315 -190q-121 -174 -121 -365z" />
<glyph unicode="A" horiz-adv-x="1280" d="M27 0l594 1477h53l577 -1477h-45l-192 485h-746l-194 -485h-47zM285 528h712l-348 908h-4z" />
<glyph unicode="B" horiz-adv-x="1228" d="M82 0v1477h629q182 0 293 -93q118 -99 118 -273q0 -136 -88 -233.5t-221 -105.5v-4q156 -4 255 -107.5t99 -259.5q0 -199 -145 -307q-129 -94 -336 -94h-604zM123 41h582q182 0 296 86q125 96 125 272q0 174 -125 267q-111 84 -290 84h-588v-709zM123 791h588 q156 0 258 79q112 88 112 238q0 160 -106 248q-100 80 -264 80h-588v-645z" />
<glyph unicode="C" horiz-adv-x="1409" d="M57 727q0 330 176 549q189 235 509 235h3q215 0 388 -129q188 -141 196 -348h-41q-16 195 -184 320q-157 116 -356 116h-3q-301 0 -479 -225q-168 -209 -168 -518q0 -295 162 -498q174 -223 459 -223q254 0 416 164q152 154 186 410h41q-37 -274 -199 -439 q-174 -176 -444 -176q-305 0 -490 234q-172 213 -172 528z" />
<glyph unicode="D" horiz-adv-x="1273" d="M82 0v1477h512q315 0 477 -215q146 -195 146 -523q0 -334 -175 -532q-184 -207 -512 -207h-448zM123 41h418q303 0 475 201q160 188 160 497q0 319 -136 498q-152 199 -456 199h-461v-1395z" />
<glyph unicode="E" horiz-adv-x="1058" d="M80 0v1477h971v-41h-930v-645h874v-41h-874v-709h938v-41h-979z" />
<glyph unicode="F" horiz-adv-x="980" d="M80 0v1477h901v-41h-860v-645h778v-41h-778v-750h-41z" />
<glyph unicode="G" horiz-adv-x="1427" d="M57 739q0 326 179 541q188 231 507 231q238 0 405 -132t202 -363h-41q-39 213 -192.5 333.5t-373.5 120.5q-299 0 -477 -219q-168 -205 -168 -512q0 -315 166 -516q176 -217 486 -217q283 0 438 187q143 172 143 456h-567v41h608l2 -41q0 -129 -22.5 -221t-57 -159.5 t-82 -116t-96.5 -84.5q-166 -102 -373 -103q-326 0 -512 230q-174 211 -174 544z" />
<glyph unicode="H" horiz-adv-x="1267" d="M80 0v1477h41v-686h1024v686h41v-1477h-41v750h-1024v-750h-41z" />
<glyph unicode="I" horiz-adv-x="233" d="M96 0v1477h41v-1477h-41z" />
<glyph unicode="J" horiz-adv-x="868" d="M18 457h35q-1 -32 -1 -62q0 -175 50 -260q78 -129 289 -129q199 0 283 107q78 98 78 303v1020h-621v41h662v-1092q0 -420 -402 -420q-227 0 -317 141q-59 91 -59 268q0 39 3 83z" />
<glyph unicode="K" horiz-adv-x="1288" d="M80 0v1477h41v-897l1014 897h61l-707 -629l748 -848h-55l-725 823l-336 -299v-524h-41z" />
<glyph unicode="L" horiz-adv-x="974" d="M80 0v1477h41v-1436h854v-41h-895z" />
<glyph unicode="M" horiz-adv-x="1536" d="M80 0v1477h67l619 -1424h4l619 1424h67v-1477h-41v1425h-4l-620 -1425h-46l-620 1425h-4v-1425h-41z" />
<glyph unicode="N" horiz-adv-x="1267" d="M80 0v1477h61l1000 -1426h4v1426h41v-1477h-62l-999 1425h-4v-1425h-41z" />
<glyph unicode="O" horiz-adv-x="1462" d="M57 739q0 326 170 541q186 231 504 231q317 0 504 -231q170 -215 170 -541t-170 -540q-186 -233 -504 -234q-317 0 -504 234q-170 215 -170 540zM98 739q0 -309 158 -512q174 -221 475 -221t475 221q158 203 158 512t-158 512q-174 219 -475 219t-475 -219 q-158 -203 -158 -512z" />
<glyph unicode="P" horiz-adv-x="1122" d="M80 0v1477h592q205 0 321 -99q123 -104 123 -305q0 -242 -198 -340q-113 -61 -244 -61h-8h-545v-672h-41zM121 713h551q174 0 284 92q119 98 119 268q0 362 -403 363h-551v-723z" />
<glyph unicode="Q" horiz-adv-x="1437" d="M43 739q0 326 172 541q184 231 502 231q319 0 504 -231q170 -215 170 -541q0 -377 -217 -592l-27 -26q-168 -154 -398 -154h-6q0 -173 281 -173q38 0 82 3l-12 -41q-40 -3 -76 -3q-316 0 -316 214h-34q-283 16 -453 232q-172 215 -172 540zM84 739q0 -309 160 -512 q172 -221 473 -221q236 0 393 139l29 27q211 200 211 567q0 309 -158 512q-174 219 -475 219t-473 -219q-160 -203 -160 -512z" />
<glyph unicode="R" horiz-adv-x="1187" d="M80 0v1477h598q446 0 446 -379q0 -309 -331 -398l303 -700h-52l-299 692h-624v-692h-41zM121 735h547q180 0 293 90q122 101 122 277q0 334 -395 334h-567v-701z" />
<glyph unicode="S" horiz-adv-x="1196" d="M53 489h41q0 -483 531 -483q188 0 321 82q154 98 154 277q0 227 -260 317q-242 61 -484 121q-260 92 -260 327q0 199 158 300q129 81 337 81h5q498 0 516 -448h-41q-12 407 -473 407h-2q-190 0 -311 -73q-147 -88 -148 -267q0 -213 260 -296q242 -61 484 -123 q260 -99 260 -349q0 -197 -166 -303q-143 -94 -350 -94q-264 0 -414 127q-158 135 -158 397z" />
<glyph unicode="T" horiz-adv-x="1101" d="M4 1436v41h1094v-41h-527v-1436h-41v1436h-526z" />
<glyph unicode="U" horiz-adv-x="1218" d="M72 551v926h41v-926q0 -545 495 -545q496 0 496 545v926h41v-926q0 -276 -129 -426q-137 -160 -408 -160q-270 0 -407 160q-129 150 -129 426z" />
<glyph unicode="V" horiz-adv-x="1228" d="M27 1477h41l553 -1424h4l536 1424h41l-557 -1477h-45z" />
<glyph unicode="W" horiz-adv-x="1925" d="M51 1477h43l414 -1426h4l422 1426h59l428 -1426h4l408 1426h41l-424 -1477h-55l-430 1425h-4l-422 -1425h-56z" />
<glyph unicode="X" horiz-adv-x="1292" d="M57 0l564 760l-533 717h53l506 -684l510 684h51l-532 -717l557 -760h-51l-535 727l-538 -727h-52z" />
<glyph unicode="Y" horiz-adv-x="1265" d="M20 1477h52l561 -811l563 811h49l-592 -854v-623h-41v623z" />
<glyph unicode="Z" horiz-adv-x="1097" d="M10 0v55l1022 1381h-964v41h1005v-56l-1022 -1380h1039v-41h-1080z" />
<glyph unicode="[" horiz-adv-x="313" d="M82 -367v1878h231v-41h-190v-1796h190v-41h-231z" />
<glyph unicode="\" horiz-adv-x="714" d="M2 1511h41l670 -1546h-41z" />
<glyph unicode="]" horiz-adv-x="319" d="M0 -326h190v1796h-190v41h231v-1878h-231v41z" />
<glyph unicode="^" horiz-adv-x="1044" d="M29 469l473 938h41l473 -938h-41l-453 897l-452 -897h-41z" />
<glyph unicode="_" horiz-adv-x="1189" d="M82 -156h1024v-102h-1024v102z" />
<glyph unicode="`" horiz-adv-x="329" d="M4 1511h59l256 -297h-30z" />
<glyph unicode="a" d="M59 532q0 227 121 386q132 169 352 169h3q221 0 352 -172q51 -66 80 -141v289h41v-1063h-41v291q-18 -57 -80 -144q-131 -172 -355 -172q-221 0 -354 172q-119 156 -119 385zM100 532q0 -213 109 -356q121 -160 326 -160t323 160q109 145 109 356q0 209 -109 355 q-121 160 -323 160q-203 0 -324 -160q-111 -143 -111 -355z" />
<glyph unicode="b" horiz-adv-x="1015" d="M82 0v1477h41v-711h4q39 152 152.5 236.5t269.5 84.5q215 0 338 -176q110 -158 110 -381q0 -227 -108 -380q-121 -174 -340 -175q-152 0 -265.5 88.5t-156.5 233.5h-4v-297h-41zM123 530q0 -209 106 -352q119 -162 320 -162t311 162q96 141 96 352q0 209 -96 353 q-113 164 -311 164q-211 0 -326 -158q-100 -139 -100 -359z" />
<glyph unicode="c" horiz-adv-x="1005" d="M57 508q0 248 121 405q131 174 371 174q160 0 269.5 -94t127.5 -252h-41q-23 141 -118 223.5t-238 82.5q-221 0 -342 -164q-109 -145 -109 -375q0 -205 109 -342q119 -150 317 -150q158 0 268.5 95.5t120.5 250.5h41q-16 -176 -134 -281.5t-296 -105.5q-217 0 -346 160 q-121 150 -121 373z" />
<glyph unicode="d" horiz-adv-x="1017" d="M18 530q0 223 111 381q123 176 338 176q158 0 270.5 -84.5t151.5 -236.5h4v711h41v-1477h-41v297h-4q-41 -145 -156 -233.5t-266 -88.5q-217 0 -340 175q-109 154 -109 380zM59 530q0 -211 97 -352q111 -162 311 -162q201 0 319 162q107 143 107 352q0 221 -100 359 q-113 158 -326 158q-199 0 -309 -164q-98 -143 -99 -353z" />
<glyph unicode="e" horiz-adv-x="1034" d="M59 532q0 221 117 379q131 176 344 176q229 0 352 -172q109 -151 109 -391h-881q2 -225 95 -356q106 -152 321 -152q168 0 277.5 93.5t134.5 259.5h41q-20 -180 -143.5 -287t-305.5 -107q-236 0 -356 166q-104 145 -105 391zM100 565h840q0 203 -104 336 q-115 145 -312 146q-190 0 -309 -150q-104 -133 -115 -332z" />
<glyph unicode="f" horiz-adv-x="421" d="M25 1022v41h102v192q-1 15 -1 30q0 88 32 130q49 61 176 62q4 0 88 -9v-41q-51 8 -96 9q-88 0 -123 -33t-35 -119v-221h227v-41h-227v-1022h-41v1022h-102z" />
<glyph unicode="g" horiz-adv-x="1030" d="M55 567q0 221 113 365q124 155 337 155h3q141 0 253.5 -86t145.5 -221h4v283h41v-1028q0 -209 -113.5 -317.5t-324.5 -108.5q-172 0 -278 80q-119 90 -123 256h41q6 -147 110 -226q93 -69 244 -69h4q399 0 399 385v321h-4q-31 -135 -150.5 -217t-262.5 -82 q-211 0 -330 154q-109 139 -109 356zM96 567q0 -199 97 -325q109 -143 299 -144q195 0 311 140q106 130 106 329q0 195 -100 330q-113 150 -301 150q-197 0 -309 -146q-102 -131 -103 -334z" />
<glyph unicode="h" horiz-adv-x="907" d="M82 0v1462h41v-669h4q14 61 46 112t80 90t111.5 60.5t141.5 21.5q82 0 150.5 -24.5t118.5 -72.5t78 -118.5t28 -163.5v-698h-41v692q0 92 -27 156.5t-73 106.5t-106.5 61.5t-127.5 19.5q-94 0 -166 -35.5t-120 -96t-72.5 -140.5t-24.5 -168v-596h-41z" />
<glyph unicode="i" horiz-adv-x="229" d="M78 0v1063h41v-1063h-41zM78 1268v209h41v-209h-41z" />
<glyph unicode="j" horiz-adv-x="329" d="M0 -326q129 0 166 27q47 35 47 158v1204h41v-1219q0 -133 -64 -176q-49 -33 -190 -35v41zM213 1268v209h41v-209h-41z" />
<glyph unicode="k" horiz-adv-x="948" d="M82 0v1477h41v-1024l727 610h59l-483 -406l518 -657h-55l-494 629l-272 -228v-401h-41z" />
<glyph unicode="l" horiz-adv-x="354" d="M80 199v1278h41v-1270q2 -166 145 -166q33 0 88 6v-41q-70 -6 -100 -6q-172 0 -174 199z" />
<glyph unicode="m" horiz-adv-x="1529" d="M82 0v1053h41v-260h4q14 61 46 112t76 90t98 60.5t116 21.5h14q114 -1 192 -63q83 -66 109 -183h4q31 111 122 178.5t212 67.5q94 0 158.5 -28.5t103.5 -78.5t55.5 -121t16.5 -157v-692h-41v692q0 78 -13.5 141.5t-47 108.5t-90 69.5t-142.5 24.5q-78 0 -138 -29.5 t-103.5 -81t-66 -118t-22.5 -139.5v-668h-41v676q0 74 -11 139.5t-41.5 114.5t-86 77.5t-143.5 28.5q-78 0 -141.5 -35.5t-107.5 -96t-67.5 -140.5t-23.5 -168v-596h-41z" />
<glyph unicode="n" horiz-adv-x="956" d="M82 0v1063h41v-262h4q33 133 136.5 209.5t242.5 76.5q174 0 274.5 -104t100.5 -278v-705h-41v698q0 160 -88 254.5t-246 94.5q-180 0 -287 -136q-96 -123 -96 -309v-602h-41z" />
<glyph unicode="o" horiz-adv-x="1064" d="M59 532q0 227 121 386q132 169 352 169h3q221 0 352 -172q121 -156 121 -383q0 -229 -121 -385q-131 -172 -355 -172q-221 0 -354 172q-119 156 -119 385zM100 532q0 -213 109 -356q121 -160 326 -160t323 160q109 145 109 356q0 209 -109 355q-121 160 -323 160 q-203 0 -324 -160q-111 -143 -111 -355z" />
<glyph unicode="p" horiz-adv-x="1017" d="M82 -367v1430h41v-297h4q41 145 155.5 233t266.5 88q217 0 340 -174q108 -151 108 -378q0 -225 -108 -381q-125 -178 -340 -179q-156 0 -269.5 86t-152.5 236h-4v-664h-41zM123 535q0 -221 100 -361q113 -158 326 -158q201 0 311 166q96 144 96 353t-96 350 q-111 162 -311 162q-201 0 -320 -160q-106 -145 -106 -352z" />
<glyph unicode="q" horiz-adv-x="1019" d="M20 535q0 227 109 378q123 174 340 174q152 0 266.5 -88t155.5 -233h4v297h41v-1430h-41v664h-4q-39 -150 -152.5 -236t-269.5 -86q-215 0 -340 179q-109 156 -109 381zM61 535q0 -209 97 -353q111 -166 311 -166q213 0 326 158q100 140 100 361q0 207 -107 352 q-119 160 -319 160q-201 0 -311 -162q-96 -141 -97 -350z" />
<glyph unicode="r" horiz-adv-x="540" d="M82 0v1053h41v-260h4q14 57 45 110t82 93q52 40 122 62q64 20 149 19h16v-41q-16 1 -31 1q-90 -1 -157 -31q-79 -36 -130 -98t-75.5 -144t-24.5 -168v-596h-41z" />
<glyph unicode="s" horiz-adv-x="919" d="M55 365h41q0 -348 385 -349q133 0 228 58q113 68 112 192q0 156 -188 219l-348 90q-188 72 -189 246q0 133 117 205q98 61 240 61q381 0 381 -337h-41q0 297 -340 297q-123 0 -209 -50q-106 -61 -107 -176q0 -152 189 -215q174 -45 348 -92q188 -72 188 -244 q0 -145 -123 -225q-104 -70 -258 -70q-426 0 -426 390z" />
<glyph unicode="t" horiz-adv-x="423" d="M14 1022v41h131v252l41 84v-336h238v-41h-238v-1022h-41v1022h-131z" />
<glyph unicode="u" horiz-adv-x="958" d="M76 358v705h41v-698q0 -160 88 -254.5t246 -94.5q180 0 286 136q96 123 97 309v602h40v-1063h-40v262h-5q-33 -133 -136 -210t-242 -77q-174 0 -274.5 104.5t-100.5 278.5z" />
<glyph unicode="v" horiz-adv-x="940" d="M35 1063h49l408 -1022h4l376 1022h46l-398 -1063h-51z" />
<glyph unicode="w" horiz-adv-x="1540" d="M53 1063h41l314 -1022h4l325 1022h64l323 -1022h4l320 1022h41l-336 -1063h-53l-328 1022h-4l-330 -1022h-57z" />
<glyph unicode="x" horiz-adv-x="1009" d="M57 0l422 551l-383 512h54l354 -481l362 481h49l-385 -512l422 -551h-51l-397 520l-395 -520h-52z" />
<glyph unicode="y" horiz-adv-x="935" d="M37 1063h45l418 -1008l377 1008h43l-486 -1280q-37 -96 -108 -127q-53 -23 -170 -23v41q121 0 176 37q49 31 80 113q33 92 65 186z" />
<glyph unicode="z" horiz-adv-x="839" d="M14 0v51l738 971h-682v41h725v-51l-738 -971h770v-41h-813z" />
<glyph unicode="{" horiz-adv-x="417" d="M12 559v41q84 14 117 117q25 78 25 235q0 35 -2 109t-2 108q0 164 28 240q37 102 131 102h103v-41h-99q-117 0 -116 -260q0 -35 2 -114.5t2 -120.5q0 -336 -148 -400q150 -72 150 -407q0 -41 -2 -121t-2 -117q0 -256 114 -256h99v-41h-103q-88 0 -123 72q-29 55 -28 178 q0 41 4 131t4 140q0 305 -154 405z" />
<glyph unicode="|" horiz-adv-x="237" d="M82 -35v1546h41v-1546h-41z" />
<glyph unicode="}" horiz-adv-x="417" d="M6 -326h98q70 0 97 76q20 57 20 187q0 35 -2 113.5t-2 119.5q0 338 148 401q-147 72 -148 406q0 41 2 122t2 118q0 254 -117 253h-98v41h103q90 0 124 -71q29 -57 29 -180q0 -39 -4 -130.5t-4 -140.5q0 -303 152 -401v-41q-84 -14 -115 -119q-25 -78 -25 -235 q0 -35 2 -109v-109q0 -164 -26 -239q-37 -102 -133 -103h-103v41z" />
<glyph unicode="~" horiz-adv-x="1032" d="M61 436q94 180 242 180q86 0 242.5 -71.5t208.5 -71.5q84 0 180 150l41 -13q-109 -178 -223 -178q-66 0 -211.5 71.5t-237.5 71.5q-113 0 -201 -151z" />
<glyph unicode="&#xa1;" horiz-adv-x="229" d="M78 -367v1112h41v-1112h-41zM78 918v202h41v-202h-41z" />
<glyph unicode="&#xa2;" horiz-adv-x="952" d="M35 535q0 215 108 370q121 172 328 180v183h41v-183q166 -4 274 -92q119 -92 136 -252h-41q-20 143 -121 222t-248 81v-1028h10q150 0 252.5 98.5t116.5 247.5h41q-20 -174 -133 -279.5t-287 -107.5v-225h-41v225q-211 8 -330 183q-106 156 -106 377zM76 535 q0 -205 94 -347q108 -166 301 -172v1028q-190 -6 -299 -167q-96 -141 -96 -342z" />
<glyph unicode="&#xa3;" horiz-adv-x="1134" d="M61 6q242 209 242 426q0 168 -65 281h-156v43h135q-47 90 -94 178q-49 106 -49 192q0 186 141 291q127 94 322 94q215 0 346 -116q139 -123 129 -330l-4 -72h-41l2 62q6 195 -114 305t-318 110q-178 0 -293 -81q-129 -92 -129 -263q0 -84 51 -192q49 -88 98 -178h324v-43 h-305q61 -111 61 -281q0 -219 -203 -395l4 -4q102 78 209 78q70 0 201 -52.5t199 -52.5q90 0 172 53q57 35 141 119l27 -28q-160 -184 -340 -185q-72 0 -202 51.5t-198 51.5q-131 0 -256 -103z" />
<glyph unicode="&#xa4;" horiz-adv-x="1150" d="M68 702q0 201 135 349l-117 118l29 29l116 -119q145 137 344 138q201 0 345 -138l116 119l29 -29l-117 -118q135 -146 135 -349q0 -199 -135 -346l117 -118l-29 -29l-116 119q-147 -137 -345 -138q-199 0 -344 138l-116 -119l-29 29l117 118q-135 147 -135 346zM109 702 q0 -193 137 -332t329 -139q190 0 328.5 139t138.5 332q0 195 -137 334.5t-330 139.5t-329.5 -140.5t-136.5 -333.5z" />
<glyph unicode="&#xa5;" horiz-adv-x="1097" d="M23 1477h45l479 -793h4l479 793h45l-485 -805h278v-41h-301v-211h301v-41h-301v-379h-41v379h-301v41h301v211h-301v41h283z" />
<glyph unicode="&#xa6;" horiz-adv-x="194" d="M82 -35v596h41v-596h-41zM82 915v596h41v-596h-41z" />
<glyph unicode="&#xa7;" horiz-adv-x="997" d="M47 725q0 92 70 176q63 78 153 111q-109 90 -108 225q0 133 98 207q90 68 225 67q164 0 260 -110q90 -106 91 -273h-41q-4 158 -78 246q-82 96 -236 96q-117 0 -192 -59q-86 -66 -86 -178q0 -133 194 -258q180 -111 363 -221q192 -148 192 -332q0 -94 -71.5 -173 t-167.5 -108q123 -102 123 -229q0 -145 -93.5 -224t-242.5 -79q-178 0 -271 112q-88 106 -88 289h41q0 -360 318 -360q115 0 198 59q94 68 95 176q0 160 -193 295q-180 111 -358 221q-195 143 -195 324zM88 707q0 -141 229 -308q178 -115 357 -229q94 20 165.5 92t71.5 162 q0 121 -112 235q-82 86 -246 183q-123 72 -246 141q-92 -29 -155.5 -105.5t-63.5 -170.5z" />
<glyph unicode="&#xa8;" horiz-adv-x="528" d="M82 1221v168h41v-168h-41zM401 1221v168h41v-168h-41z" />
<glyph unicode="&#xa9;" horiz-adv-x="1642" d="M55 739q0 317 224.5 544.5t541.5 227.5t541.5 -227.5t224.5 -544.5t-224 -545.5t-542 -228.5q-317 0 -541.5 228.5t-224.5 545.5zM96 739q0 -301 212 -517t513 -216t513 216t212 517t-212 516t-513 215t-513 -215t-212 -516zM393 727q0 207 120 339t325 132 q150 0 255 -84t124 -229h-41q-18 127 -113.5 199.5t-224.5 72.5q-186 0 -295 -119.5t-109 -308.5q0 -188 109 -311q115 -129 301 -129q123 0 213 80t119 202h41q-33 -141 -130 -229q-104 -94 -243 -94q-203 0 -327 137t-124 342z" />
<glyph unicode="&#xaa;" horiz-adv-x="722" d="M57 934q0 141 131 176q8 4 242 23q131 12 131 90q0 168 -199 168t-221 -174h-41q23 215 262 215q240 0 240 -185v-393q0 -41 70 -39v-41q-86 -2 -103 33q-8 14 -8 115h-4q14 -74 -100 -123q-90 -39 -170 -39q-94 0 -156 39q-74 45 -74 135zM98 934q0 -133 189 -133 q117 0 195.5 63t78.5 178v101h-4q-27 -41 -149 -49q-164 -12 -205 -25q-104 -33 -105 -135z" />
<glyph unicode="&#xab;" horiz-adv-x="509" d="M27 539v32l211 287v-72l-170 -231l170 -231v-74zM217 539v32l211 287v-72l-170 -231l170 -231v-74z" />
<glyph unicode="&#xac;" horiz-adv-x="1116" d="M0 702v43h1032v-552h-41v509h-991z" />
<glyph unicode="&#xad;" horiz-adv-x="522" d="M80 535v40h358v-40h-358z" />
<glyph unicode="&#xae;" horiz-adv-x="1642" d="M55 739q0 317 224.5 544.5t541.5 227.5t541.5 -227.5t224.5 -544.5t-224 -545.5t-542 -228.5q-317 0 -541.5 228.5t-224.5 545.5zM96 739q0 -301 212 -517t513 -216t513 216t212 517t-212 516t-513 215t-513 -215t-212 -516zM563 279v890h289q291 0 291 -241 q0 -102 -63.5 -162.5t-166.5 -69.5l271 -417h-51l-265 413q-23 -2 -264 -2v-411h-41zM604 733h213q285 0 285 195q0 199 -254 198h-244v-393z" />
<glyph unicode="&#xaf;" horiz-adv-x="641" d="M82 1298v41h475v-41h-475z" />
<glyph unicode="&#xb0;" horiz-adv-x="700" d="M57 1135q0 121 85 209t208 88q121 0 207 -88t86 -209q0 -123 -85 -211t-208 -88q-125 0 -209 88t-84 211zM98 1135q0 -106 73 -182t179 -76t179 76t73 182t-73.5 181t-178.5 75q-100 0 -176 -78t-76 -178z" />
<glyph unicode="&#xb1;" horiz-adv-x="1036" d="M2 0v41h1032v-41h-1032zM2 596v41h496v410h41v-410h495v-41h-495v-410h-41v410h-496z" />
<glyph unicode="&#xb2;" horiz-adv-x="696" d="M61 573q0 121 142 230q131 90 262 178q141 111 141 236q0 90 -78 137q-63 37 -159 37q-250 0 -250 -250h-41q6 291 291 291q117 0 190 -48q88 -57 88 -167q0 -131 -135 -248q-6 -4 -254 -176q-141 -98 -149 -179h563v-41h-611z" />
<glyph unicode="&#xb3;" horiz-adv-x="749" d="M49 858h41q0 -258 289 -258q104 0 180 49q86 57 86 158q0 123 -104 168q-70 31 -209 31v43q131 0 194 24q102 41 103 152q0 166 -246 166q-266 0 -266 -234h-41q0 133 90 207q82 68 219 68q285 0 285 -207q0 -88 -60.5 -142.5t-148.5 -54.5v-4q100 -6 162 -59 q63 -60 63 -158q0 -117 -98 -186q-86 -61 -207 -62q-152 0 -238 72q-94 80 -94 227z" />
<glyph unicode="&#xb4;" horiz-adv-x="344" d="M10 1214l271 297h59l-299 -297h-31z" />
<glyph unicode="&#xb6;" horiz-adv-x="976" d="M23 1071q0 201 131 307q121 98 325 99h414v-1766h-41v1725h-334v-1725h-41v967q-180 0 -311 104q-143 113 -143 289z" />
<glyph unicode="&#xb7;" horiz-adv-x="260" d="M66 702q0 68 65 68q66 0 66 -68q0 -66 -66 -65q-66 0 -65 65z" />
<glyph unicode="&#xb8;" horiz-adv-x="440" d="M29 -344l18 41q90 -35 150 -35q160 0 159 111q0 37 -35.5 59.5t-76.5 22.5q-66 0 -111 -27l-31 20l117 152h41l-84 -117q8 2 35 8q18 4 33 5q153 0 153 -123q0 -152 -200 -152q-57 0 -168 35z" />
<glyph unicode="&#xb9;" horiz-adv-x="370" d="M0 1221v39q133 43 240 157h45v-844h-41v797h-4q-70 -102 -240 -149z" />
<glyph unicode="&#xba;" horiz-adv-x="735" d="M59 1098q0 141 85 237.5t225 96.5q141 0 227 -99q80 -94 80 -235q0 -143 -82 -238q-86 -100 -227 -100q-139 0 -223.5 98t-84.5 240zM100 1098q0 -121 76 -209t193 -88q119 0 194 92q72 86 72 205t-74 206t-192 87q-117 0 -193 -87t-76 -206z" />
<glyph unicode="&#xbb;" horiz-adv-x="509" d="M82 250v74l170 231l-170 231v72l211 -287v-32zM272 250v74l170 231l-170 231v72l211 -287v-32z" />
<glyph unicode="&#xbc;" horiz-adv-x="1368" d="M41 1221v39q133 43 240 157h45v-844h-41v797h-4q-70 -102 -240 -149zM127 -70l975 1547h47l-975 -1547h-47zM680 211v51l442 582h52v-592h155v-41h-155v-211h-41v211h-453zM723 252h410l-5 532z" />
<glyph unicode="&#xbd;" horiz-adv-x="1519" d="M47 1221v39q133 43 240 157h45v-844h-41v797h-4q-72 -102 -240 -149zM113 -70l974 1547h48l-975 -1547h-47zM881 0q0 123 139 231q133 90 264 179q141 111 141 233q0 92 -77 137q-63 37 -160 37q-252 0 -250 -250h-41q4 291 291 291q117 0 190 -47q88 -57 88 -168 q0 -131 -135 -248q-6 -4 -256 -176q-139 -98 -147 -178h563v-41h-610z" />
<glyph unicode="&#xbe;" horiz-adv-x="1568" d="M41 858h41q0 -258 289 -258q104 0 180 49q86 57 86 158q0 104 -82 158q-70 45 -176 45q-29 0 -55 -4v43q131 0 194 24q102 41 103 152q0 166 -246 166q-266 0 -266 -234h-41q0 133 90 207q82 68 219 68q285 0 285 -207q0 -88 -60.5 -142.5t-148.5 -54.5v-4 q100 -6 159 -59q66 -60 66 -158q0 -117 -98 -186q-86 -61 -207 -62q-152 0 -240 72q-92 80 -92 227zM334 -70l975 1547h47l-975 -1547h-47zM874 211v51l443 582h51v-592h156v-41h-156v-211h-41v211h-453zM918 252h409l-4 532z" />
<glyph unicode="&#xbf;" horiz-adv-x="886" d="M23 -47q0 158 104 276q96 98 192 199q104 131 105 317h41q0 -197 -105 -331q-96 -100 -192 -201q-104 -117 -105 -260q0 -147 111 -229q98 -74 252 -74q199 0 305 129q98 119 98 321h41q0 -219 -112 -350q-119 -141 -332 -141q-170 0 -281 86q-123 94 -122 258zM426 918 v202h41v-202h-41z" />
<glyph unicode="&#xc0;" horiz-adv-x="1269" d="M25 0l593 1477h54l577 -1477h-45l-192 485h-746l-194 -485h-47zM283 528h712l-348 908h-4zM428 1880h59l256 -297h-30z" />
<glyph unicode="&#xc1;" horiz-adv-x="1271" d="M20 0l594 1477h54l577 -1477h-45l-192 485h-746l-194 -485h-48zM279 528h712l-348 908h-4zM522 1583l271 297h59l-299 -297h-31z" />
<glyph unicode="&#xc2;" horiz-adv-x="1280" d="M27 0l594 1477h53l577 -1477h-45l-192 485h-746l-194 -485h-47zM285 528h712l-348 908h-4zM393 1593l232 287h30l234 -287h-41l-211 254l-203 -254h-41z" />
<glyph unicode="&#xc3;" horiz-adv-x="1267" d="M20 0l594 1477h54l577 -1477h-45l-192 485h-746l-194 -485h-48zM279 528h712l-348 908h-4zM365 1614q0 55 42 109.5t97 54.5q49 0 134 -60.5t126 -60.5q45 0 72.5 34.5t27.5 80.5h41q0 -68 -38 -112t-103 -44q-55 0 -135 60.5t-125 60.5q-41 0 -69.5 -40t-28.5 -83h-41z " />
<glyph unicode="&#xc4;" horiz-adv-x="1267" d="M20 0l594 1477h54l577 -1477h-45l-192 485h-746l-194 -485h-48zM279 528h712l-348 908h-4zM455 1589v168h41v-168h-41zM774 1589v168h41v-168h-41z" />
<glyph unicode="&#xc5;" horiz-adv-x="1288" d="M31 0l594 1477h53l577 -1477h-45l-192 485h-746l-194 -485h-47zM289 528h712l-348 908h-4zM465 1706q0 72 54 127t126 55t126 -55t54 -127q0 -74 -53 -128t-127 -54t-127 54t-53 128zM506 1706q0 -57 41 -99t98 -42t98 42t41 99t-41 99t-98 42t-98 -42t-41 -99z" />
<glyph unicode="&#xc6;" horiz-adv-x="1777" d="M31 0l774 1477h960v-41h-802v-645h737v-41h-737v-709h802v-41h-843v567h-549l-297 -567h-45zM393 608h529v832h-97z" />
<glyph unicode="&#xc7;" horiz-adv-x="1380" d="M41 727q0 330 176 549q190 236 512 235q215 0 387 -129q188 -141 197 -348h-41q-16 195 -185 320q-158 117 -358 116q-301 0 -479 -225q-168 -209 -168 -518q0 -295 162 -498q174 -223 458 -223q254 0 416 164q152 154 187 410h41q-37 -272 -197 -437 q-168 -174 -434 -178l-60 -82q8 2 35 8q18 4 33 5q154 0 154 -123q0 -152 -201 -152q-57 0 -168 35l18 41q90 -35 150 -35q160 0 160 111q0 37 -36 59.5t-77 22.5q-66 0 -111 -27l-30 20l92 117q-295 12 -469 244q-164 213 -164 518z" />
<glyph unicode="&#xc8;" horiz-adv-x="1040" d="M61 0v1477h971v-41h-930v-645h875v-41h-875v-709h938v-41h-979zM291 1880h59l256 -297h-31z" />
<glyph unicode="&#xc9;" horiz-adv-x="1036" d="M57 0v1477h971v-41h-930v-645h875v-41h-875v-709h938v-41h-979zM385 1583l270 297h60l-299 -297h-31z" />
<glyph unicode="&#xca;" horiz-adv-x="1042" d="M63 0v1477h971v-41h-930v-645h875v-41h-875v-709h938v-41h-979zM256 1593l231 287h31l234 -287h-41l-211 254l-203 -254h-41z" />
<glyph unicode="&#xcb;" horiz-adv-x="1044" d="M66 0v1477h970v-41h-930v-645h875v-41h-875v-709h938v-41h-978zM326 1589v168h41v-168h-41zM645 1589v168h41v-168h-41z" />
<glyph unicode="&#xcc;" horiz-adv-x="335" d="M0 1880h59l256 -297h-30zM190 0v1477h41v-1477h-41z" />
<glyph unicode="&#xcd;" horiz-adv-x="348" d="M18 1583l271 297h59l-299 -297h-31zM111 0v1477h41v-1477h-41z" />
<glyph unicode="&#xce;" horiz-adv-x="516" d="M10 1593l232 287h30l234 -287h-41l-211 254l-203 -254h-41zM238 0v1477h41v-1477h-41z" />
<glyph unicode="&#xcf;" horiz-adv-x="376" d="M8 1589v168h41v-168h-41zM168 0v1477h41v-1477h-41zM328 1589v168h41v-168h-41z" />
<glyph unicode="&#xd0;" horiz-adv-x="1380" d="M55 750v41h131v686h512q315 0 478 -215q145 -195 145 -523q0 -334 -174 -532q-184 -207 -512 -207h-449v750h-131zM227 41h418q305 0 475 201q160 188 160 497q0 319 -135 498q-150 199 -457 199h-461v-645h609v-41h-609v-709z" />
<glyph unicode="&#xd1;" horiz-adv-x="1232" d="M63 0v1477h62l999 -1426h4v1426h41v-1477h-61l-999 1425h-5v-1425h-41zM346 1614q0 55 42 109.5t97 54.5q49 0 134.5 -60.5t125.5 -60.5q45 0 73 34.5t28 80.5h41q0 -68 -38 -112t-104 -44q-55 0 -135 60.5t-125 60.5q-41 0 -69.5 -40t-28.5 -83h-41z" />
<glyph unicode="&#xd2;" horiz-adv-x="1429" d="M43 739q0 326 172 541q184 231 502 231q317 0 504 -231q170 -215 170 -541t-170 -540q-186 -233 -504 -234q-317 0 -504 234q-170 215 -170 540zM84 739q0 -309 160 -512q172 -221 473 -221t475 221q158 203 158 512t-158 512q-174 219 -475 219t-473 -219 q-160 -203 -160 -512zM506 1880h59l256 -297h-30z" />
<glyph unicode="&#xd3;" horiz-adv-x="1429" d="M39 739q0 326 170 541q186 231 504 231q317 0 504 -231q169 -215 169 -541t-169 -540q-186 -233 -504 -234q-317 0 -504 234q-170 215 -170 540zM80 739q0 -309 158 -512q174 -221 475 -221t475 221q158 203 158 512t-158 512q-174 219 -475 219t-475 -219 q-158 -203 -158 -512zM600 1583l270 297h60l-299 -297h-31z" />
<glyph unicode="&#xd4;" horiz-adv-x="1433" d="M43 739q0 326 170 541q186 231 504 231q317 0 504 -231q170 -215 170 -541t-170 -540q-186 -233 -504 -234q-317 0 -504 234q-170 215 -170 540zM84 739q0 -309 158 -512q174 -221 475 -221t475 221q158 203 158 512t-158 512q-174 219 -475 219t-475 -219 q-158 -203 -158 -512zM469 1593l231 287h31l234 -287h-41l-211 254l-203 -254h-41z" />
<glyph unicode="&#xd5;" horiz-adv-x="1441" d="M47 739q0 326 170 541q186 231 504 231q317 0 504 -231q170 -215 170 -541t-170 -540q-186 -233 -504 -234q-317 0 -504 234q-170 215 -170 540zM88 739q0 -309 158 -512q174 -221 475 -221t475 221q158 203 158 512t-158 512q-174 219 -475 219t-475 -219 q-158 -203 -158 -512zM451 1614q0 55 42 109.5t97 54.5q49 0 135 -60.5t125 -60.5q45 0 72.5 34.5t27.5 80.5h41q0 -68 -38 -112t-103 -44q-53 0 -134 60.5t-126 60.5q-41 0 -69.5 -40t-28.5 -83h-41z" />
<glyph unicode="&#xd6;" horiz-adv-x="1441" d="M47 739q0 326 172 541q184 231 502 231q317 0 504 -231q170 -215 170 -541t-170 -540q-186 -233 -504 -234q-317 0 -504 234q-170 215 -170 540zM88 739q0 -309 160 -512q172 -221 473 -221t475 221q158 203 158 512t-158 512q-174 219 -475 219t-473 -219 q-160 -203 -160 -512zM541 1589v168h41v-168h-41zM860 1589v168h41v-168h-41z" />
<glyph unicode="&#xd7;" horiz-adv-x="974" d="M70 131l389 393l-389 391l28 29l387 -395l392 395l28 -29l-391 -391l391 -393l-28 -31l-392 396l-387 -396z" />
<glyph unicode="&#xd8;" horiz-adv-x="1472" d="M63 739q0 326 170 541q186 231 504 231q297 0 480 -204l120 135l31 -25l-125 -141q168 -209 168 -537q0 -326 -172 -540q-184 -233 -502 -234q-303 0 -481 209l-145 -164l-31 25l149 168q-166 213 -166 536zM104 739q0 -305 154 -503l930 1040q-172 195 -451 194 q-301 0 -475 -219q-158 -203 -158 -512zM285 205q166 -199 452 -199q301 0 473 221q160 203 160 512q0 307 -156 504z" />
<glyph unicode="&#xd9;" horiz-adv-x="1175" d="M53 551v926h41v-926q0 -545 496 -545t495 545v926h41v-926q0 -276 -129 -426q-137 -160 -407 -160t-408 160q-129 150 -129 426zM379 1880h59l256 -297h-30z" />
<glyph unicode="&#xda;" horiz-adv-x="1177" d="M49 551v926h41v-926q0 -545 496 -545t495 545v926h41v-926q0 -276 -129 -426q-137 -160 -407 -160t-408 160q-129 150 -129 426zM473 1583l270 297h60l-299 -297h-31z" />
<glyph unicode="&#xdb;" horiz-adv-x="1183" d="M55 551v926h41v-926q0 -545 496 -545t495 545v926h41v-926q0 -276 -129 -426q-137 -160 -407 -160t-408 160q-129 150 -129 426zM344 1593l231 287h31l234 -287h-41l-211 254l-203 -254h-41z" />
<glyph unicode="&#xdc;" horiz-adv-x="1191" d="M59 551v926h41v-926q0 -545 496 -545t496 545v926h41v-926q0 -276 -129 -426q-137 -160 -408 -160q-270 0 -408 160q-129 150 -129 426zM416 1589v168h41v-168h-41zM735 1589v168h41v-168h-41z" />
<glyph unicode="&#xdd;" horiz-adv-x="1241" d="M8 1477h51l562 -811l563 811h49l-592 -854v-623h-41v623zM508 1628l270 297h60l-299 -297h-31z" />
<glyph unicode="&#xde;" horiz-adv-x="1120" d="M82 0v1477h41v-256q51 0 189.5 7t213.5 7q270 0 408 -74q184 -100 184 -344q0 -242 -198 -340q-147 -72 -428 -71q-72 0 -198 5t-171 5v-416h-41zM123 457h551q172 0 287.5 95t115.5 265q0 362 -403 363h-551v-723z" />
<glyph unicode="&#xdf;" horiz-adv-x="944" d="M78 0v1151q0 166 97 258t263 92q154 0 262 -90q115 -98 115 -250q0 -131 -65 -219q-70 -94 -195 -115v-4q336 -29 336 -389q0 -244 -139 -346q-121 -88 -373 -88v41l53 -2q418 -16 418 395q0 213 -137 299q-106 68 -334 68v41q395 0 395 319q0 137 -102 221 q-94 78 -234 78q-152 0 -235.5 -81t-83.5 -234v-1145h-41z" />
<glyph unicode="&#xe0;" d="M59 532q0 227 121 386q133 170 355 169q221 0 352 -172q51 -66 80 -141v289h41v-1063h-41v291q-18 -57 -80 -144q-131 -172 -355 -172q-221 0 -354 172q-119 156 -119 385zM100 532q0 -213 109 -356q121 -160 326 -160t323 160q109 145 109 356q0 209 -109 355 q-121 160 -323 160q-203 0 -324 -160q-111 -143 -111 -355zM387 1511h59l256 -297h-30z" />
<glyph unicode="&#xe1;" d="M59 532q0 227 121 386q133 170 355 169q221 0 352 -172q51 -66 80 -141v289h41v-1063h-41v291q-18 -57 -80 -144q-131 -172 -355 -172q-221 0 -354 172q-119 156 -119 385zM100 532q0 -213 109 -356q121 -160 326 -160t323 160q109 145 109 356q0 209 -109 355 q-121 160 -323 160q-203 0 -324 -160q-111 -143 -111 -355zM379 1214l271 297h59l-299 -297h-31z" />
<glyph unicode="&#xe2;" d="M59 532q0 227 121 386q133 170 355 169q221 0 352 -172q51 -66 80 -141v289h41v-1063h-41v291q-18 -57 -80 -144q-131 -172 -355 -172q-221 0 -354 172q-119 156 -119 385zM100 532q0 -213 109 -356q121 -160 326 -160t323 160q109 145 109 356q0 209 -109 355 q-121 160 -323 160q-203 0 -324 -160q-111 -143 -111 -355zM297 1225l231 286h31l233 -286h-41l-211 254l-202 -254h-41z" />
<glyph unicode="&#xe3;" d="M59 532q0 227 121 386q133 170 355 169q221 0 352 -172q51 -66 80 -141v289h41v-1063h-41v291q-18 -57 -80 -144q-131 -172 -355 -172q-221 0 -354 172q-119 156 -119 385zM100 532q0 -213 109 -356q121 -160 326 -160t323 160q109 145 109 356q0 209 -109 355 q-121 160 -323 160q-203 0 -324 -160q-111 -143 -111 -355zM275 1245q0 55 43 109.5t96 54.5q51 0 136 -60.5t124 -60.5q45 0 72.5 35t27.5 80h41q0 -68 -36.5 -112t-104.5 -44q-53 0 -134 60.5t-126 60.5q-39 0 -67.5 -40t-30.5 -83h-41z" />
<glyph unicode="&#xe4;" d="M59 532q0 227 121 386q133 170 355 169q221 0 352 -172q51 -66 80 -141v289h41v-1063h-41v291q-18 -57 -80 -144q-131 -172 -355 -172q-221 0 -354 172q-119 156 -119 385zM100 532q0 -213 109 -356q121 -160 326 -160t323 160q109 145 109 356q0 209 -109 355 q-121 160 -323 160q-203 0 -324 -160q-111 -143 -111 -355zM365 1221v168h41v-168h-41zM684 1221v168h41v-168h-41z" />
<glyph unicode="&#xe5;" d="M59 532q0 227 121 386q133 170 355 169q221 0 352 -172q51 -66 80 -141v289h41v-1063h-41v291q-18 -57 -80 -144q-131 -172 -355 -172q-221 0 -354 172q-119 156 -119 385zM100 532q0 -213 109 -356q121 -160 326 -160t323 160q109 145 109 356q0 209 -109 355 q-121 160 -323 160q-203 0 -324 -160q-111 -143 -111 -355zM364 1380q0 72 54.5 126.5t126.5 54.5t126 -54.5t54 -126.5q0 -74 -53.5 -127t-126.5 -53q-72 0 -126.5 54.5t-54.5 125.5zM405 1380q0 -57 42 -98t98 -41q57 0 98 41t41 98t-41 98.5t-98 41.5q-55 0 -97.5 -41 t-42.5 -99z" />
<glyph unicode="&#xe6;" horiz-adv-x="1988" d="M70 532q0 227 120 386q133 170 355 169q221 0 352 -172q51 -66 80 -141v289h41v-350q23 55 46 107t52 91q131 176 344 176q229 0 352 -172q109 -152 109 -391h-881q2 -225 95 -356q106 -152 321 -152q168 0 277.5 93.5t134.5 259.5h41q-20 -180 -143.5 -287t-305.5 -107 q-236 0 -356 166q-59 84 -86 199v-340h-41v291q-18 -57 -80 -144q-131 -172 -354 -172q-221 0 -355 172q-119 156 -118 385zM111 532q0 -213 108 -356q121 -160 326 -160t323 160q109 145 109 356q0 209 -109 355q-121 160 -323 160q-203 0 -324 -160q-111 -143 -110 -355z M1040 565h840q0 203 -104 336q-115 145 -312 146q-190 0 -309 -150q-104 -133 -115 -332z" />
<glyph unicode="&#xe7;" horiz-adv-x="974" d="M39 508q0 248 121 405q131 174 370 174q160 0 269.5 -94t128.5 -252h-41q-23 141 -118 223.5t-239 82.5q-221 0 -342 -164q-109 -145 -108 -375q0 -205 108 -342q119 -150 318 -150q158 0 268.5 95.5t120.5 250.5h41q-16 -174 -130 -278t-288 -109l-67 -92q8 2 34 8 q18 4 33 5q154 0 154 -123q0 -152 -201 -152q-57 0 -168 35l19 41q90 -35 149 -35q160 0 160 111q0 37 -36 59.5t-77 22.5q-66 0 -110 -27l-31 20l98 127q-203 12 -323 170q-113 147 -113 363z" />
<glyph unicode="&#xe8;" horiz-adv-x="995" d="M43 532q0 221 117 379q129 176 344 176q229 0 352 -172q109 -151 109 -391h-881q2 -225 94 -356q106 -152 322 -152q168 0 277.5 93.5t133.5 259.5h41q-20 -180 -144 -287t-304 -107q-238 0 -357 166q-104 145 -104 391zM84 565h840q0 203 -105 336q-115 145 -311 146 q-190 0 -309 -150q-106 -133 -115 -332zM293 1466h59l256 -297h-30z" />
<glyph unicode="&#xe9;" horiz-adv-x="995" d="M35 532q0 221 117 379q129 176 344 176q229 0 352 -172q108 -151 108 -391h-880q2 -225 94 -356q106 -152 322 -152q168 0 277.5 93.5t133.5 259.5h41q-20 -180 -144 -287t-304 -107q-238 0 -357 166q-104 145 -104 391zM76 565h839q0 203 -104 336q-115 145 -311 146 q-190 0 -310 -150q-106 -133 -114 -332zM383 1169l270 297h60l-299 -297h-31z" />
<glyph unicode="&#xea;" horiz-adv-x="1005" d="M45 532q0 221 117 379q129 176 344 176q229 0 352 -172q109 -151 109 -391h-881q2 -225 94 -356q106 -152 322 -152q168 0 277.5 93.5t133.5 259.5h41q-20 -180 -144 -287t-304 -107q-238 0 -356 166q-104 145 -105 391zM86 565h840q0 203 -105 336q-115 145 -311 146 q-190 0 -309 -150q-106 -133 -115 -332zM258 1180l231 286h31l234 -286h-41l-211 254l-203 -254h-41z" />
<glyph unicode="&#xeb;" horiz-adv-x="1009" d="M47 532q0 221 117 379q129 176 344 176q229 0 352 -172q109 -151 109 -391h-881q2 -225 94 -356q106 -152 322 -152q168 0 277.5 93.5t133.5 259.5h41q-20 -180 -144 -287t-304 -107q-238 0 -356 166q-104 145 -105 391zM88 565h840q0 203 -105 336q-115 145 -311 146 q-190 0 -309 -150q-106 -133 -115 -332zM328 1176v167h41v-167h-41zM647 1176v167h41v-167h-41z" />
<glyph unicode="&#xec;" horiz-adv-x="335" d="M2 1466h59l256 -297h-30zM193 0v1063h40v-1063h-40z" />
<glyph unicode="&#xed;" horiz-adv-x="348" d="M16 1169l271 297h59l-299 -297h-31zM109 0v1063h41v-1063h-41z" />
<glyph unicode="&#xee;" horiz-adv-x="518" d="M10 1180l232 286h30l234 -286h-41l-211 254l-203 -254h-41zM238 0v1063h41v-1063h-41z" />
<glyph unicode="&#xef;" horiz-adv-x="393" d="M16 1176v167h41v-167h-41zM176 0v1063h41v-1063h-41zM336 1176v167h41v-167h-41z" />
<glyph unicode="&#xf0;" horiz-adv-x="1036" d="M41 512q0 223 123 375q133 162 352 162q223 0 332 -150h8q-113 225 -330 412l-250 -140l-30 31l248 137q-84 70 -191 125l33 29q109 -57 196 -131l252 139l31 -33l-246 -139q420 -389 420 -817q0 -223 -123 -375q-133 -160 -352 -160q-217 0 -350 162q-123 150 -123 373z M82 512q0 -207 113 -344q121 -150 321 -150q201 0 322 150q110 139 110 344t-110 344q-121 152 -322 152t-321 -150q-113 -139 -113 -346z" />
<glyph unicode="&#xf1;" horiz-adv-x="925" d="M66 0v1063h40v-262h5q33 133 136 209.5t242 76.5q174 0 274.5 -104t100.5 -278v-705h-41v698q0 160 -88 254.5t-246 94.5q-180 0 -286 -136q-96 -123 -97 -309v-602h-40zM195 1200q0 55 42 109.5t97 54.5q49 0 135 -60.5t125 -60.5q45 0 72.5 35t27.5 80h41 q0 -68 -38 -112t-103 -44q-53 0 -134 60.5t-126 60.5q-41 0 -69.5 -40t-28.5 -83h-41z" />
<glyph unicode="&#xf2;" horiz-adv-x="1024" d="M41 532q0 227 121 386q133 170 354 169q221 0 352 -172q121 -156 121 -383q0 -229 -121 -385q-131 -172 -354 -172q-221 0 -354 172q-119 156 -119 385zM82 532q0 -213 108 -356q121 -160 326 -160t324 160q108 145 108 356q0 209 -108 355q-121 160 -324 160t-323 -160 q-111 -143 -111 -355zM305 1466h60l256 -297h-31z" />
<glyph unicode="&#xf3;" horiz-adv-x="1024" d="M35 532q0 227 121 386q133 170 354 169q221 0 352 -172q121 -156 121 -383q0 -229 -121 -385q-131 -172 -354 -172q-221 0 -354 172q-119 156 -119 385zM76 532q0 -213 108 -356q121 -160 326 -160t324 160q108 145 108 356q0 209 -108 355q-121 160 -324 160t-324 -160 q-111 -143 -110 -355zM397 1169l271 297h59l-299 -297h-31z" />
<glyph unicode="&#xf4;" horiz-adv-x="1034" d="M43 532q0 227 121 386q133 170 354 169q221 0 352 -172q121 -156 121 -383q0 -229 -121 -385q-131 -172 -354 -172q-221 0 -354 172q-119 156 -119 385zM84 532q0 -213 109 -356q121 -160 325 -160q205 0 324 160q108 145 108 356q0 209 -108 355q-121 160 -324 160 t-323 -160q-111 -143 -111 -355zM270 1180l232 286h30l234 -286h-41l-211 254l-203 -254h-41z" />
<glyph unicode="&#xf5;" horiz-adv-x="1042" d="M47 532q0 227 121 386q133 170 354 169q221 0 352 -172q121 -156 121 -383q0 -229 -121 -385q-131 -172 -354 -172q-221 0 -354 172q-119 156 -119 385zM88 532q0 -213 109 -356q121 -160 325 -160q205 0 324 160q108 145 108 356q0 209 -108 355q-121 160 -324 160 t-323 -160q-111 -143 -111 -355zM252 1200q0 55 42 109.5t97 54.5q49 0 135 -60.5t125 -60.5q45 0 73 35t28 80h41q0 -68 -38 -112t-104 -44q-53 0 -134 60.5t-126 60.5q-41 0 -69.5 -40t-28.5 -83h-41z" />
<glyph unicode="&#xf6;" horiz-adv-x="1038" d="M45 532q0 227 121 386q133 170 354 169q221 0 352 -172q121 -156 121 -383q0 -229 -121 -385q-131 -172 -354 -172q-221 0 -354 172q-119 156 -119 385zM86 532q0 -213 109 -356q121 -160 325 -160q205 0 324 160q108 145 108 356q0 209 -108 355q-121 160 -324 160 t-323 -160q-111 -143 -111 -355zM340 1176v167h41v-167h-41zM659 1176v167h41v-167h-41z" />
<glyph unicode="&#xf7;" horiz-adv-x="1044" d="M6 502v43h1032v-43h-1032zM438 84q0 86 84 86q35 0 59.5 -24.5t24.5 -61.5q0 -84 -84 -84t-84 84zM438 963q0 37 23.5 60.5t60.5 23.5q35 0 59.5 -24.5t24.5 -59.5q0 -86 -84 -86t-84 86z" />
<glyph unicode="&#xf8;" horiz-adv-x="1091" d="M59 45l123 129q-102 145 -102 358q0 227 121 386q133 170 354 169q215 0 342 -159l92 98l29 -29l-96 -102q106 -148 106 -363q0 -229 -121 -385q-131 -172 -354 -172q-219 0 -348 164l-117 -123zM121 532q0 -190 90 -327l655 692q-113 150 -311 150q-205 0 -326 -160 q-109 -143 -108 -355zM236 172q113 -156 319 -156q203 0 324 160q108 145 108 356q0 193 -96 332z" />
<glyph unicode="&#xf9;" horiz-adv-x="901" d="M53 358v705h41v-698q0 -160 88 -254.5t246 -94.5q180 0 287 136q96 123 96 309v602h41v-1063h-41v262h-4q-33 -133 -136.5 -210t-242.5 -77q-174 0 -274.5 104.5t-100.5 278.5zM242 1466h59l256 -297h-31z" />
<glyph unicode="&#xfa;" horiz-adv-x="903" d="M45 358v705h41v-698q0 -160 88 -254.5t246 -94.5q180 0 287 136q96 123 96 309v602h41v-1063h-41v262h-4q-33 -133 -136.5 -210t-242.5 -77q-174 0 -274.5 104.5t-100.5 278.5zM332 1169l270 297h60l-300 -297h-30z" />
<glyph unicode="&#xfb;" horiz-adv-x="915" d="M55 358v705h41v-698q0 -160 88 -254.5t246 -94.5q180 0 287 136q96 123 96 309v602h41v-1063h-41v262h-4q-33 -133 -136.5 -210t-242.5 -77q-174 0 -274.5 104.5t-100.5 278.5zM207 1180l231 286h31l233 -286h-40l-211 254l-203 -254h-41z" />
<glyph unicode="&#xfc;" horiz-adv-x="923" d="M59 358v705h41v-698q0 -160 88 -254.5t246 -94.5q180 0 287 136q96 123 96 309v602h41v-1063h-41v262h-4q-33 -133 -136.5 -210t-242.5 -77q-174 0 -274.5 104.5t-100.5 278.5zM279 1176v167h40v-167h-40zM598 1176v167h41v-167h-41z" />
<glyph unicode="&#xfd;" horiz-adv-x="909" d="M14 1063h45l418 -1008l377 1008h43l-485 -1280q-37 -96 -111 -127q-51 -23 -168 -23v41q119 0 176 37q47 31 80 113q33 92 66 186zM344 1214l270 297h60l-299 -297h-31z" />
<glyph unicode="&#xfe;" horiz-adv-x="1001" d="M82 -367v1844h41v-711h4q43 152 153.5 236.5t268.5 84.5q225 0 344 -169q104 -150 104 -383q0 -236 -102 -388q-121 -172 -346 -172q-154 0 -268.5 87.5t-153.5 234.5h-4v-664h-41zM123 535q0 -217 102 -359q115 -160 324 -160t317 162q90 138 90 357q0 217 -92 354 q-109 158 -315 158q-207 0 -322 -158q-104 -139 -104 -354z" />
<glyph unicode="&#xff;" horiz-adv-x="911" d="M16 1063h45l418 -1008l377 1008h43l-485 -1280q-35 -96 -109 -127q-53 -23 -170 -23v41q121 0 178 37q47 31 78 113q33 92 66 186zM279 1221v168h40v-168h-40zM598 1221v168h41v-168h-41z" />
<glyph unicode="&#x152;" horiz-adv-x="2043" d="M66 731q0 328 170 545q184 236 505 235q254 0 402 -170v136h889v-41h-848v-645h749v-41h-749v-709h848v-41h-889v135q-162 -170 -402 -170q-317 0 -503 230q-172 213 -172 536zM106 731q0 -307 160 -508q174 -217 475 -217q240 1 402 189v1093q-172 182 -402 182 q-305 0 -477 -223q-158 -203 -158 -516z" />
<glyph unicode="&#x153;" horiz-adv-x="1824" d="M70 532q0 231 98 381q115 174 334 174q164 0 274.5 -99t132.5 -263h4q31 172 136.5 267t277.5 95q229 0 340 -176q90 -145 90 -387h-823q0 -508 393 -508q313 0 375 342h41q-29 -176 -131 -276q-111 -106 -285 -107q-172 0 -279.5 91.5t-132.5 259.5h-4 q-74 -350 -409 -351q-217 0 -334 177q-98 152 -98 380zM111 532q0 -213 86 -350q104 -166 305 -166q211 0 309 160q82 133 82 356q0 219 -84 353q-102 162 -307 162q-201 0 -305 -164q-86 -137 -86 -351zM934 565h782q-4 209 -90 334q-100 147 -297 148q-379 0 -395 -482z " />
<glyph unicode="&#x178;" horiz-adv-x="1245" d="M10 1477h51l562 -811l563 811h49l-592 -854v-623h-41v623zM442 1589v168h41v-168h-41zM762 1589v168h41v-168h-41z" />
<glyph unicode="&#x2c6;" horiz-adv-x="561" d="M33 1225l231 286h31l233 -286h-41l-211 254l-202 -254h-41z" />
<glyph unicode="&#x2dc;" horiz-adv-x="677" d="M68 1245q0 55 43 109.5t96 54.5q51 0 136 -60.5t124 -60.5q45 0 72.5 35t27.5 80h41q0 -68 -36.5 -112t-104.5 -44q-53 0 -134 60.5t-126 60.5q-39 0 -67.5 -40t-30.5 -83h-41z" />
<glyph unicode="&#x2000;" horiz-adv-x="962" />
<glyph unicode="&#x2001;" horiz-adv-x="1925" />
<glyph unicode="&#x2002;" horiz-adv-x="962" />
<glyph unicode="&#x2003;" horiz-adv-x="1925" />
<glyph unicode="&#x2004;" horiz-adv-x="641" />
<glyph unicode="&#x2005;" horiz-adv-x="481" />
<glyph unicode="&#x2006;" horiz-adv-x="320" />
<glyph unicode="&#x2007;" horiz-adv-x="320" />
<glyph unicode="&#x2008;" horiz-adv-x="240" />
<glyph unicode="&#x2009;" horiz-adv-x="385" />
<glyph unicode="&#x200a;" horiz-adv-x="106" />
<glyph unicode="&#x2010;" horiz-adv-x="522" d="M80 535v40h358v-40h-358z" />
<glyph unicode="&#x2011;" horiz-adv-x="522" d="M80 535v40h358v-40h-358z" />
<glyph unicode="&#x2012;" horiz-adv-x="522" d="M80 535v40h358v-40h-358z" />
<glyph unicode="&#x2013;" horiz-adv-x="1189" d="M82 535v40h1024v-40h-1024z" />
<glyph unicode="&#x2014;" horiz-adv-x="2211" d="M82 535v40h2048v-40h-2048z" />
<glyph unicode="&#x2018;" horiz-adv-x="176" d="M63 1012v243q0 92 11 127q18 59 82 95v-41q-51 -33 -52 -181v-243h-41z" />
<glyph unicode="&#x2019;" horiz-adv-x="180" d="M20 1012v41q51 33 52 180v244h41v-244q0 -92 -13 -127q-16 -59 -80 -94z" />
<glyph unicode="&#x201a;" horiz-adv-x="167" d="M20 -205q55 51 56 252q0 37 -2 90t-2 66h41v-203q0 -184 -93 -246v41z" />
<glyph unicode="&#x201c;" horiz-adv-x="428" d="M76 1012v243q0 92 10 127q18 59 82 95v-41q-51 -33 -51 -181v-243h-41zM281 1012v243q0 92 10 127q18 59 82 95v-41q-51 -33 -51 -181v-243h-41z" />
<glyph unicode="&#x201d;" horiz-adv-x="432" d="M57 1012v41q51 33 52 180v244h41v-244q0 -92 -11 -127q-18 -59 -82 -94zM262 1012v41q51 33 51 180v244h41v-244q0 -92 -10 -127q-18 -59 -82 -94z" />
<glyph unicode="&#x201e;" horiz-adv-x="428" d="M57 -205q55 51 56 252q0 37 -2 90t-2 66h41v-203q0 -184 -93 -246v41zM262 -205q55 51 55 252q0 37 -2 90t-2 66h41v-203q0 -184 -92 -246v41z" />
<glyph unicode="&#x2022;" horiz-adv-x="845" d="M57 739q0 152 105.5 259.5t259.5 107.5q152 0 259 -107.5t107 -259.5t-107.5 -261t-258.5 -109q-154 0 -259.5 109.5t-105.5 260.5z" />
<glyph unicode="&#x2026;" horiz-adv-x="1568" d="M82 0v203h41v-203h-41zM764 0v203h41v-203h-41zM1446 0v203h41v-203h-41z" />
<glyph unicode="&#x202f;" horiz-adv-x="385" />
<glyph unicode="&#x2039;" horiz-adv-x="296" d="M2 539v32l211 287v-72l-170 -231l170 -231v-74z" />
<glyph unicode="&#x203a;" horiz-adv-x="294" d="M82 250v74l170 231l-170 231v72l211 -287v-32z" />
<glyph unicode="&#x205f;" horiz-adv-x="481" />
<glyph unicode="&#x2122;" horiz-adv-x="1775" d="M43 1436v41h655v-41h-307v-811h-41v811h-307zM891 625v852h70l331 -795l332 795h70v-852h-41v811h-4l-336 -811h-41l-336 811h-4v-811h-41z" />
<glyph unicode="&#xe000;" horiz-adv-x="1064" d="M0 0v1065h1065v-1065h-1065z" />
</font>
</defs>
</svg>
