<?xml version="1.0" standalone="no"?>
<!DOCTYPE svg PUBLIC "-//W3C//DTD SVG 1.1//EN" "http://www.w3.org/Graphics/SVG/1.1/DTD/svg11.dtd" >
<svg xmlns="http://www.w3.org/2000/svg">
<metadata></metadata>
<defs>
<font id="aliquamultralight_italic" horiz-adv-x="1089" >
<font-face units-per-em="2048" ascent="1638" descent="-410" />
<missing-glyph horiz-adv-x="419" />
<glyph horiz-adv-x="2048" />
<glyph horiz-adv-x="2048" />
<glyph unicode="&#xd;" horiz-adv-x="419" />
<glyph unicode=" "  horiz-adv-x="419" />
<glyph unicode="&#x09;" horiz-adv-x="419" />
<glyph unicode="&#xa0;" horiz-adv-x="419" />
<glyph unicode="!" horiz-adv-x="225" d="M76 0l43 203h41l-43 -203h-41zM156 377l233 1100h41l-233 -1100h-41z" />
<glyph unicode="&#x22;" horiz-adv-x="434" d="M295 1012l98 465h41l-98 -465h-41zM524 1012l99 465h41l-99 -465h-41z" />
<glyph unicode="#" horiz-adv-x="1038" d="M121 473l8 41h266l127 367h-258l8 41h269l168 485h41l-168 -485h350l168 485h41l-168 -485h237l-8 -41h-248l-127 -367h240l-8 -41h-248l-164 -473h-41l164 473h-352l-164 -473h-41l164 473h-256zM436 514h350l127 367h-350z" />
<glyph unicode="$" horiz-adv-x="1163" d="M139 489h41q-98 -465 387 -481l158 737q-231 53 -307 103q-139 92 -99 282q41 195 216 295q145 84 352 86l20 91h41l-20 -93q467 -10 393 -446h-41q72 395 -360 405l-148 -690q268 -72 330 -110q143 -95 98 -306q-41 -197 -231 -305q-162 -92 -369 -92l-39 -182h-41 l39 184q-248 10 -356 139q-115 135 -64 383zM360 1130q-37 -168 97 -249q67 -46 276 -93l146 682q-184 -2 -320 -75q-162 -90 -199 -265zM608 6q190 0 340 82q174 99 211 277q39 184 -98 270q-63 41 -297 100z" />
<glyph unicode="%" horiz-adv-x="1417" d="M172 -70l1305 1547h47l-1305 -1547h-47zM279 1073q33 154 129 252q106 106 258 107q152 0 215 -105q59 -96 26 -252q-31 -150 -138 -250t-253 -100q-150 0 -213 102q-57 94 -24 246zM319 1073q-29 -133 21 -217q53 -90 184 -90q129 0 221 88t121 219q31 143 -18 225 q-53 92 -191 93q-137 0 -227 -93q-80 -84 -111 -225zM807 326q33 154 129 252q106 104 258 104t217 -102q60 -96 27 -252q-33 -150 -138 -248q-111 -104 -256 -105q-150 0 -210 103q-57 96 -27 248zM848 326q-29 -133 22 -217q51 -92 183 -93q129 0 225 93q90 86 117 217 q31 141 -20.5 228t-188.5 87t-228 -92q-80 -82 -110 -223z" />
<glyph unicode="&#x26;" horiz-adv-x="1161" d="M119 332q33 156 192 289q90 76 303 194q-51 90 -98 180q-55 117 -37 207q27 125 129.5 200t229.5 75t196.5 -75t42.5 -200t-157 -233q-39 -33 -248 -164l280 -492q72 111 138 365h40q-66 -262 -157 -404l157 -274h-53l-133 233q-203 -268 -485 -268q-164 0 -266 101 q-109 106 -74 266zM160 332q-31 -147 65 -240q90 -86 242 -86q271 0 459 266l-293 510q-217 -121 -289 -180q-154 -121 -184 -270zM522 1206q-16 -78 37 -196q8 -20 94 -174q170 100 232 151q128 104 151 215q23 104 -37.5 169t-167.5 65q-109 0 -197.5 -61.5t-111.5 -168.5 z" />
<glyph unicode="'" horiz-adv-x="233" d="M295 1012l98 465h41l-98 -465h-41z" />
<glyph unicode="(" horiz-adv-x="327" d="M145 584q102 485 435 927h41q-332 -442 -435 -927q-108 -509 37 -951h-41q-139 469 -37 951z" />
<glyph unicode=")" horiz-adv-x="329" d="M-49 -367q332 446 434 930q109 510 -39 948h41q141 -467 39 -948q-102 -483 -434 -930h-41z" />
<glyph unicode="*" horiz-adv-x="626" d="M281 1237l20 39l240 -88l61 289h41l-61 -289l288 88v-39l-284 -88l121 -227l-37 -25l-123 223l-219 -215l-27 29l227 215z" />
<glyph unicode="+" horiz-adv-x="1036" d="M109 502l8 43h495l107 502h41l-107 -502h496l-8 -43h-496l-106 -502h-41l106 502h-495z" />
<glyph unicode="," horiz-adv-x="163" d="M-31 -246l8 41q63 53 105 252q8 37 17.5 90t13.5 66h41l-43 -203q-39 -182 -142 -246z" />
<glyph unicode="-" horiz-adv-x="522" d="M193 535l8 40h358l-8 -40h-358z" />
<glyph unicode="." horiz-adv-x="233" d="M80 0l43 203h41l-43 -203h-41z" />
<glyph unicode="/" horiz-adv-x="714" d="M-4 -35l995 1546h41l-997 -1546h-39z" />
<glyph unicode="0" horiz-adv-x="1171" d="M207 702q63 299 215 492q188 238 467 238q276 0 362 -238q72 -193 9 -492t-216 -489q-188 -238 -464 -238q-279 0 -365 238q-72 190 -8 489zM248 702q-59 -281 4 -460q76 -225 336 -226q258 0 432 226q140 179 199 460q61 281 -2 461q-78 227 -336 228q-260 0 -435 -228 q-137 -180 -198 -461z" />
<glyph unicode="1" horiz-adv-x="497" d="M233 1104l11 43l426 260h45l-299 -1407h-41l287 1354h-5z" />
<glyph unicode="2" horiz-adv-x="1013" d="M59 0q39 190 301 375q240 152 480 303q262 184 303 375q35 162 -62 254q-88 84 -254 84q-205 0 -335 -123q-123 -115 -166 -322h-41q47 225 187 355.5t364 130.5q184 0 280 -95q106 -102 68 -284q-43 -201 -299 -389q-231 -147 -465 -297q-262 -172 -311 -326h897l-9 -41 h-938z" />
<glyph unicode="3" horiz-adv-x="1097" d="M152 434l10 41h41l-13 -45q-53 -201 64 -311q106 -102 315 -103q176 0 318 97q156 104 192 276q45 213 -96 293q-98 55 -330 55l9 41q215 0 327 47q170 70 211 260q33 154 -76 236q-92 70 -254 70q-205 0 -343 -108.5t-181 -311.5h-41q47 221 198.5 341t375.5 120 q182 0 282 -80q117 -92 80 -267q-29 -137 -129 -225t-240 -100v-4q145 -14 213 -113.5t35 -253.5q-41 -188 -211 -305q-156 -109 -348 -109q-227 0 -344 115q-125 125 -65 344z" />
<glyph unicode="4" horiz-adv-x="1028" d="M82 367l10 49l907 991h52l-213 -999h252l-9 -41h-252l-77 -367h-41l77 367h-706zM131 408h666l200 942h-4z" />
<glyph unicode="5" horiz-adv-x="1044" d="M145 451h41q-43 -203 52.5 -319t298.5 -116q201 0 347 124t189 327q41 197 -54 320.5t-292 123.5q-123 0 -235 -53q-123 -59 -199 -162h-51l301 711h714l-10 -41h-682l-254 -602h4q158 190 422 190q213 0 317.5 -137t59.5 -350q-47 -219 -208 -355.5t-378 -136.5 q-221 0 -324.5 128t-58.5 348z" />
<glyph unicode="6" horiz-adv-x="1093" d="M199 664q66 307 215 510q193 258 473 258q164 0 264 -97.5t90 -259.5h-41q0 150 -86 233t-237 83q-279 0 -457 -279q-129 -199 -197 -518h4q63 154 217 254t314 100q199 0 309.5 -144t67.5 -343q-43 -201 -214 -343.5t-370 -142.5q-498 0 -352 689zM213 461 q-39 -182 61.5 -313.5t284.5 -131.5q182 0 339 131.5t196 313.5t-62.5 313t-283.5 131q-184 0 -340 -131t-195 -313z" />
<glyph unicode="7" horiz-adv-x="1056" d="M379 0q156 739 913 1366h-843l10 41h889l-13 -55q-373 -307 -587 -613q-246 -346 -328 -739h-41z" />
<glyph unicode="8" horiz-adv-x="1122" d="M137 393q35 162 153 263.5t285 115.5v4q-117 16 -182 98t-41 201q39 182 191 275q131 82 321 82q188 0 287 -82q113 -92 74 -275q-25 -119 -125.5 -200.5t-225.5 -98.5v-4q158 -14 234 -115.5t41 -263.5q-43 -209 -221 -319q-156 -98 -373 -99q-217 0 -334 99 q-127 111 -84 319zM178 393q-39 -190 80 -291q106 -86 305 -86t340 86q166 101 205 291q41 188 -86 281q-102 76 -303 76t-338 -76q-162 -92 -203 -281zM393 1075q-31 -141 84 -219q98 -66 252 -65q152 0 275 65q149 78 180 219q35 164 -68 246q-90 70 -260 70 q-172 0 -291 -70q-137 -82 -172 -246z" />
<glyph unicode="9" horiz-adv-x="1095" d="M150 332h40q0 -150 85 -233t239 -83q276 0 457 279q129 199 196 518h-4q-66 -154 -218 -254t-312 -100q-199 0 -309.5 144.5t-67.5 342.5q43 201 213 343.5t371 142.5q499 -1 354 -689q-66 -307 -217 -510q-193 -258 -473 -258q-166 0 -266.5 97.5t-87.5 259.5zM297 946 q-39 -184 61.5 -315t282.5 -131q184 0 341 131t196 315q39 182 -62.5 313.5t-284.5 131.5q-182 0 -338.5 -131.5t-195.5 -313.5z" />
<glyph unicode=":" horiz-adv-x="141" d="M80 0l43 203h41l-43 -203h-41zM262 860l43 203h41l-43 -203h-41z" />
<glyph unicode=";" horiz-adv-x="157" d="M-45 -246l8 41q63 53 105 252q8 37 17 90t13 66h41l-43 -203q-39 -182 -141 -246zM238 860l43 203h41l-43 -203h-41z" />
<glyph unicode="&#x3c;" horiz-adv-x="1099" d="M106 498l11 51l1151 514l-11 -43l-1107 -496l897 -497l-9 -43z" />
<glyph unicode="=" horiz-adv-x="1075" d="M84 301l8 43h1032l-8 -43h-1032zM168 702l10 43h1032l-10 -43h-1032z" />
<glyph unicode="&#x3e;" horiz-adv-x="1099" d="M53 -16l8 43l1110 497l-899 496l11 43l929 -514l-10 -51z" />
<glyph unicode="?" horiz-adv-x="884" d="M285 1020q-8 219 131 350q150 141 362 141q168 0 264 -84q103 -94 68 -258q-33 -156 -164 -274q-119 -100 -235 -199q-133 -131 -172 -319h-41q41 195 174 332q117 100 237 200q129 117 160 260q31 147 -61 230q-84 72 -238 71q-199 0 -332 -129q-125 -119 -112 -321h-41 zM418 0l43 203h41l-43 -203h-41z" />
<glyph unicode="@" horiz-adv-x="1517" d="M209 731q68 311 328 526.5t571 215.5q283 0 434 -168q157 -176 98 -455q-41 -193 -200 -375q-180 -203 -365 -203q-57 0 -81.5 37t-12.5 94h-4q-119 -131 -305 -131q-121 0 -183 93q-59 86 -32 208q45 213 219 398q188 201 393 200q92 0 164 -46t80 -130h4l78 135h43 l-230 -372q-174 -293 -188 -363q-18 -80 67 -80q166 0 330 191q145 170 182 344q55 260 -92 424q-143 158 -407 158q-293 0 -540 -204t-310 -497q-68 -317 82.5 -516t466.5 -199q176 0 356 93q174 86 307 235h47q-135 -166 -330.5 -267.5t-387.5 -101.5q-334 0 -493 210 t-89 546zM498 573q-23 -109 30.5 -183.5t159.5 -74.5q139 0 262 115q92 86 189 254q73 129 143 260q-8 184 -229 184q-182 0 -357 -190q-158 -174 -198 -365z" />
<glyph unicode="A" horiz-adv-x="1280" d="M27 0l907 1477h53l264 -1477h-45l-90 485h-745l-297 -485h-47zM395 528h713l-154 908h-4z" />
<glyph unicode="B" horiz-adv-x="1228" d="M82 0l313 1477h629q182 0 272 -93q71 -72 71 -184q0 -43 -11 -92q-27 -133 -136.5 -230.5t-242.5 -105.5l-2 -4q157 -4 233 -108q53 -72 53 -170q0 -42 -10 -89q-41 -199 -211 -307q-147 -94 -354 -94h-604zM131 41h582q182 0 315 86q145 96 182 272q10 46 10 86 q0 113 -77 181q-94 84 -275 84h-587zM291 791h588q156 0 274 79q131 88 162 238q10 46 10 85q0 100 -63 163q-82 80 -246 80h-588z" />
<glyph unicode="C" horiz-adv-x="1409" d="M211 727q70 330 293 549q239 235 558 235h3q215 0 360 -129q129 -115 130 -275q0 -35 -7 -73h-41q4 29 4 57q0 157 -120 263q-132 116 -331 116h-3q-301 0 -527 -225q-213 -209 -278 -518q-22 -103 -22 -194q0 -171 77 -304q127 -223 412 -223q254 0 450 164 q184 154 275 410h41q-96 -274 -293 -439q-211 -176 -481 -176q-305 0 -441 234q-83 139 -83 321q0 97 24 207z" />
<glyph unicode="D" horiz-adv-x="1273" d="M82 0l313 1477h512q315 0 430 -215q63 -117 63 -282q0 -110 -28 -241q-70 -334 -287 -532q-227 -207 -555 -207h-448zM131 41h418q303 0 518 201q198 188 264 497q28 132 28 240q0 153 -56 258q-109 199 -414 199h-461z" />
<glyph unicode="E" horiz-adv-x="1058" d="M80 0l313 1477h971l-8 -41h-930l-137 -645h874l-10 -41h-874l-150 -709h938l-8 -41h-979z" />
<glyph unicode="F" horiz-adv-x="980" d="M80 0l313 1477h901l-8 -41h-860l-137 -645h778l-10 -41h-778l-158 -750h-41z" />
<glyph unicode="G" horiz-adv-x="1427" d="M213 739q70 326 293 541q238 231 557 231q238 0 377 -132q126 -120 126 -322q0 -20 -1 -41h-41v19q0 199 -122 315q-128 120 -347 120q-299 0 -525 -219q-211 -205 -276 -512q-24 -111 -24 -208q0 -178 81 -308q129 -217 439 -217q283 0 477 187q180 172 241 456h-567 l8 41h609l-7 -41q-29 -129 -70.5 -221t-91 -159.5t-106.5 -116t-113 -84.5q-188 -102 -395 -103q-326 0 -463 230q-84 137 -84 325q0 102 25 219z" />
<glyph unicode="H" horiz-adv-x="1267" d="M80 0l313 1477h41l-145 -686h1024l145 686h41l-313 -1477h-41l158 750h-1024l-158 -750h-41z" />
<glyph unicode="I" horiz-adv-x="233" d="M96 0l314 1477h41l-314 -1477h-41z" />
<glyph unicode="J" horiz-adv-x="868" d="M96 106q-21 46 -21 116q0 96 40 235h35q-34 -134 -34 -223q0 -59 15 -99q49 -129 260 -129q199 0 305 107q98 98 144 303l217 1020h-621l8 41h662l-234 -1092q-88 -420 -489 -420q-227 0 -287 141z" />
<glyph unicode="K" horiz-adv-x="1288" d="M80 0l313 1477h41l-190 -897l1204 897h61l-841 -629l569 -848h-55l-551 823l-400 -299l-110 -524h-41z" />
<glyph unicode="L" horiz-adv-x="974" d="M80 0l313 1477h41l-305 -1436h854l-8 -41h-895z" />
<glyph unicode="M" horiz-adv-x="1536" d="M80 0l313 1477h68l315 -1424h4l922 1424h67l-313 -1477h-41l301 1425h-4l-921 -1425h-46l-319 1425h-4l-301 -1425h-41z" />
<glyph unicode="N" horiz-adv-x="1267" d="M80 0l313 1477h62l696 -1426h4l303 1426h41l-313 -1477h-62l-698 1425h-4l-301 -1425h-41z" />
<glyph unicode="O" horiz-adv-x="1462" d="M213 739q70 326 285 541q236 231 553 231t454 -231q81 -138 81 -322q0 -102 -25 -219q-70 -326 -285 -540q-236 -233 -553 -234q-317 0 -455 234q-80 138 -80 321q0 102 25 219zM254 739q-24 -113 -24 -211q0 -172 73 -301q127 -221 428 -221t522 221q201 203 267 512 q24 112 24 210q0 172 -74 302q-127 219 -428 219t-522 -219q-201 -203 -266 -512z" />
<glyph unicode="P" horiz-adv-x="1122" d="M80 0l313 1477h592q205 0 301 -99q70 -73 70 -193q0 -52 -13 -112q-51 -242 -270 -340q-127 -61 -258 -61h-8h-545l-141 -672h-41zM270 713h551q174 0 305 92q140 98 177 268q13 59 13 108q0 254 -339 255h-551z" />
<glyph unicode="Q" horiz-adv-x="1437" d="M199 739q70 326 286 541q233 231 551 231q319 0 455 -231q80 -138 80 -321q0 -103 -25 -220q-80 -377 -342 -592l-33 -26q-200 -154 -430 -154h-6q-4 -20 -4 -37q0 -136 247 -136q39 0 83 3l-21 -41q-40 -3 -76 -3q-276 0 -276 163q0 24 6 51h-35q-279 16 -403 232 q-82 139 -82 323q0 102 25 217zM240 739q-24 -111 -24 -209q0 -173 75 -303q125 -221 426 -221q236 0 424 139l33 27q253 200 331 567q24 113 24 211q0 172 -73 301q-127 219 -428 219t-520 -219q-203 -203 -268 -512z" />
<glyph unicode="R" horiz-adv-x="1187" d="M80 0l313 1477h598q377 0 377 -271q0 -49 -12 -108q-66 -309 -416 -398l156 -700h-52l-153 692h-625l-145 -692h-41zM276 735h547q180 0 312 90q145 101 182 277q11 51 11 95q0 239 -335 239h-567z" />
<glyph unicode="S" horiz-adv-x="1196" d="M156 489h41q-16 -78 -17 -143q0 -340 445 -340q188 0 340 82q174 98 211 277q8 38 8 73q0 170 -201 244q-227 61 -457 121q-199 76 -199 248q0 37 9 79q41 199 221 300q145 81 353 81h5q432 0 432 -337q0 -51 -10 -111h-41q10 56 10 105q0 302 -397 302h-2 q-190 0 -327 -73q-166 -88 -203 -267q-7 -34 -7 -64q0 -162 203 -232q229 -61 457 -123q197 -81 196 -263q0 -40 -9 -86q-41 -197 -230 -303q-164 -94 -371 -94q-264 0 -387 127q-90 94 -90 250q0 68 17 147z" />
<glyph unicode="T" horiz-adv-x="1101" d="M309 1436l8 41h1094l-8 -41h-526l-306 -1436h-41l306 1436h-527z" />
<glyph unicode="U" horiz-adv-x="1218" d="M188 551l197 926h41l-197 -926q-22 -104 -22 -188q0 -357 401 -357q496 0 613 545l196 926h41l-196 -926q-59 -276 -222 -426q-170 -160 -440 -160t-375 160q-59 93 -59 234q0 87 22 192z" />
<glyph unicode="V" horiz-adv-x="1228" d="M340 1477h41l250 -1424h4l840 1424h41l-871 -1477h-45z" />
<glyph unicode="W" horiz-adv-x="1925" d="M365 1477h43l110 -1426h4l725 1426h60l125 -1426h4l710 1426h41l-737 -1477h-55l-129 1425h-4l-723 -1425h-56z" />
<glyph unicode="X" horiz-adv-x="1292" d="M57 0l723 760l-379 717h54l360 -684l655 684h52l-686 -717l397 -760h-51l-381 727l-692 -727h-52z" />
<glyph unicode="Y" horiz-adv-x="1265" d="M334 1477h51l389 -811l735 811h50l-775 -854l-131 -623h-41l131 623z" />
<glyph unicode="Z" horiz-adv-x="1097" d="M10 0l10 55l1317 1381h-964l8 41h1005l-12 -56l-1315 -1380h1039l-8 -41h-1080z" />
<glyph unicode="[" horiz-adv-x="313" d="M2 -367l399 1878h232l-8 -41h-191l-381 -1796h191l-11 -41h-231z" />
<glyph unicode="\" horiz-adv-x="714" d="M322 1511h40l343 -1546h-41z" />
<glyph unicode="]" horiz-adv-x="319" d="M-78 -367l10 41h189l381 1796h-191l8 41h232l-399 -1878h-230z" />
<glyph unicode="^" horiz-adv-x="1044" d="M127 469l674 938h41l272 -938h-41l-262 897l-643 -897h-41z" />
<glyph unicode="_" horiz-adv-x="1189" d="M27 -258l20 102h1024l-20 -102h-1024z" />
<glyph unicode="`" horiz-adv-x="329" d="M324 1511h59l195 -297h-31z" />
<glyph unicode="a" d="M172 532q47 227 203 386q167 169 386 169h3q70 0 130 -9t114.5 -25.5t104.5 -38t101 -41.5l-206 -973h-41l61 291q-31 -57 -110 -144q-168 -172 -392 -172q-221 0 -317 172q-55 99 -55 228q0 74 18 157zM213 532q-16 -78 -17 -146q0 -119 50 -210q86 -160 291 -160 t358 160q139 145 184 356l88 406q-94 49 -187 80q-87 29 -208 29h-16q-203 0 -357 -160q-141 -143 -186 -355z" />
<glyph unicode="b" horiz-adv-x="1015" d="M102 94l293 1383h41l-151 -711h4q72 152 203 236.5t286 84.5q215 0 301 -176q49 -99 49 -222q0 -75 -18 -159q-49 -227 -190 -380q-158 -174 -377 -175h-20q-310 0 -421 119zM145 117q39 -35 86.5 -55.5t98.5 -31.5q50 -12 106 -14q28 -1 57 -1t58 1q201 0 346 162 q127 141 172 352q17 83 17 156q0 110 -39 197q-78 164 -277 164q-211 0 -358 -158q-131 -139 -176 -359z" />
<glyph unicode="c" horiz-adv-x="1005" d="M164 508q53 248 207 405q168 174 407 174q160 0 250 -94q76 -80 77 -206q0 -22 -3 -46h-41q1 13 1 26q0 123 -71 197q-78 82 -221 83q-221 0 -377 -164q-139 -145 -188 -375q-15 -72 -15 -135q0 -118 52 -207q86 -150 284 -150q158 0 289 95.5t174 250.5h41 q-53 -176 -193.5 -281.5t-318.5 -105.5q-217 0 -311 160q-59 99 -59 229q0 67 16 144z" />
<glyph unicode="d" horiz-adv-x="1017" d="M131 530q47 223 191 381q160 176 374 176q158 0 253 -84.5t102 -236.5h4l151 711h41l-313 -1477h-41l61 297h-4q-72 -145 -205 -233.5t-284 -88.5q-217 0 -303 175q-46 94 -46 214q0 77 19 166zM172 530q-18 -86 -18 -160q0 -109 39 -192q76 -162 276 -162q201 0 354 162 q138 143 183 352q19 87 19 162q0 114 -44 197q-80 158 -293 158q-199 0 -344 -164q-129 -143 -172 -353z" />
<glyph unicode="e" horiz-adv-x="1034" d="M172 532q47 221 197 379q168 176 381 176q229 0 317 -172q45 -90 46 -213q0 -82 -21 -178h-881q-19 -94 -19 -171q0 -108 37 -185q74 -152 289 -152q168 0 298 93.5t190 259.5h41q-59 -180 -205 -287t-328 -107q-236 0 -321 166q-43 84 -43 203q0 85 22 188zM219 565h840 q16 73 16 138q0 113 -49 198q-84 145 -281 146q-190 0 -339 -150q-133 -133 -187 -332z" />
<glyph unicode="f" horiz-adv-x="421" d="M127 0l217 1022h-102l8 41h102l41 192q16 111 64 160q63 61 190 62q4 0 86 -9l-8 -41q-49 8 -94 9q-88 0 -130 -33t-61 -119l-47 -221h228l-9 -41h-227l-217 -1022h-41z" />
<glyph unicode="g" horiz-adv-x="1030" d="M100 -55h41q-6 -34 -6 -65q0 -100 68 -161q79 -69 229 -69h4q399 0 482 385l67 321h-4q-59 -135 -196.5 -217t-280.5 -82q-211 0 -297 154q-49 88 -49 208q0 69 16 148q47 221 191 365q157 155 369 155h3q260 -8 428 -83l-207 -969q-45 -209 -181 -317.5t-347 -108.5 q-172 0 -262 80q-75 69 -75 182q0 35 7 74zM215 567q-15 -74 -15 -137q0 -109 44 -188q78 -143 268 -144q195 0 340 140q135 130 176 329l84 408q-68 39 -162 54t-221 18q-197 0 -340 -146q-131 -131 -174 -334z" />
<glyph unicode="h" horiz-adv-x="907" d="M82 0l309 1462h41l-141 -669h4q27 61 70 112t99 90t123.5 60.5t145.5 21.5q82 0 145.5 -24.5t103.5 -72.5t54 -118q5 -28 5 -59q0 -48 -13 -105l-147 -698h-41l145 692q12 56 12 101q0 29 -5 55q-13 64 -50 106.5t-93 62t-124 19.5q-94 0 -173 -35.5t-140.5 -96 t-103.5 -140.5t-60 -168l-125 -596h-41z" />
<glyph unicode="i" horiz-adv-x="229" d="M78 0l225 1063h41l-225 -1063h-41zM346 1268l45 209h41l-45 -209h-41z" />
<glyph unicode="j" horiz-adv-x="329" d="M-78 -367l10 41q127 0 168 27q55 35 82 158l256 1204h41l-260 -1219q-27 -133 -100 -176q-55 -33 -197 -35zM481 1268l45 209h41l-45 -209h-41z" />
<glyph unicode="k" horiz-adv-x="948" d="M82 0l313 1477h41l-219 -1024l858 610h60l-570 -406l379 -657h-55l-361 629l-321 -228l-84 -401h-41z" />
<glyph unicode="l" horiz-adv-x="354" d="M121 199l272 1278h41l-270 -1270q-6 -31 -6 -56q0 -110 116 -110q33 0 88 6l-8 -41q-70 -6 -100 -6q-140 0 -140 132q0 30 7 67z" />
<glyph unicode="m" horiz-adv-x="1529" d="M82 0l223 1053h41l-55 -260h4q27 61 70 112t95 90t110.5 60.5t119.5 21.5h14q116 -1 180 -63q68 -66 70 -183h4q53 111 159 178.5t226 67.5q94 0 152.5 -28.5t87.5 -78.5t30 -121v-7q0 -68 -18 -150l-145 -692h-41l145 692q16 78 18 142v7q0 59 -24 101 q-24 45 -75.5 69.5t-137.5 24.5q-78 0 -144.5 -29.5t-120.5 -81t-91 -118t-51 -139.5l-142 -668h-41l144 676q14 74 17 140v16q0 55 -18 98q-20 49 -69 77.5t-137 28.5q-78 0 -148.5 -35.5t-128 -96t-98.5 -140.5t-59 -168l-125 -596h-41z" />
<glyph unicode="n" horiz-adv-x="956" d="M82 0l225 1063h41l-55 -262h4q59 133 179 209.5t259 76.5q174 0 253 -104q54 -71 54 -174q0 -48 -12 -104l-149 -705h-41l147 698q12 54 12 101q1 91 -45 153q-68 94 -227 95q-180 0 -315 -136q-123 -123 -162 -309l-127 -602h-41z" />
<glyph unicode="o" horiz-adv-x="1064" d="M172 532q47 227 203 386q167 169 386 169h3q221 0 317 -172q56 -101 56 -231q0 -71 -17 -152q-49 -229 -202 -385q-168 -172 -392 -172q-221 0 -317 172q-55 99 -55 228q0 74 18 157zM213 532q-16 -78 -17 -146q0 -119 50 -210q86 -160 291 -160t358 160q139 145 184 356 q16 76 16 144q0 118 -48 211q-88 160 -291 160t-357 -160q-141 -143 -186 -355z" />
<glyph unicode="p" horiz-adv-x="1017" d="M2 -367l295 1375q192 81 411 81q34 0 70 -2q217 0 303 -174q48 -93 48 -214q0 -76 -19 -164q-47 -225 -190 -381q-162 -178 -377 -179q-156 0 -251 86t-104 236h-4l-141 -664h-41zM236 535q-19 -88 -19 -163q0 -114 43 -198q78 -158 291 -158q201 0 346 166 q127 144 172 353q18 84 18 157q0 109 -40 193q-76 162 -277 162q-23 1 -48 1q-72 0 -156 -8q-115 -12 -234 -63z" />
<glyph unicode="q" horiz-adv-x="1019" d="M133 535q49 227 189 378q160 174 376 174q152 0 248 -88t107 -233h4l63 297h41l-305 -1430h-41l141 664h-4q-70 -150 -202 -236t-287 -86q-215 0 -303 179q-45 95 -45 217q0 77 18 164zM174 535q-18 -85 -18 -159q0 -108 39 -194q76 -166 276 -166q213 0 360 158 q130 140 177 361q16 76 16 144q0 116 -47 208q-86 160 -287 160t-346 -162q-125 -141 -170 -350z" />
<glyph unicode="r" horiz-adv-x="540" d="M82 0l223 1053h41l-55 -260h4q27 57 69 110t101 93t135 62q70 20 152 19h16l-8 -41q-15 1 -30 1q-88 -1 -164 -31q-88 -36 -152 -98t-106 -144t-60 -168l-125 -596h-41z" />
<glyph unicode="s" horiz-adv-x="919" d="M131 365h41q-12 -56 -12 -103q0 -245 323 -246q133 0 240 58q127 68 154 192q5 25 5 47q0 119 -147 172q-164 45 -329 90q-142 60 -142 189q0 27 6 57q29 133 160 205q111 61 252 61q320 0 321 -238q0 -45 -12 -99h-41q10 47 10 86q0 211 -286 211q-123 0 -219 -50 q-119 -61 -144 -176q-5 -24 -5 -46q0 -116 147 -169q166 -45 329 -92q144 -60 144 -189q0 -26 -6 -55q-33 -145 -172 -225q-119 -70 -273 -70q-357 0 -357 274q0 53 13 116z" />
<glyph unicode="t" horiz-adv-x="423" d="M145 0l217 1022h-131l9 41h131l53 252l59 84l-71 -336h237l-8 -41h-238l-217 -1022h-41z" />
<glyph unicode="u" horiz-adv-x="958" d="M152 358l149 705h41l-149 -698q-11 -53 -11 -98q0 -93 46 -157q68 -94 225 -94q180 0 315 136q123 123 162 309l129 602h41l-226 -1063h-40l55 262h-4q-61 -133 -181 -210t-260 -77q-174 1 -252 105q-52 71 -52 173q0 49 12 105z" />
<glyph unicode="v" horiz-adv-x="940" d="M260 1063h49l191 -1022h4l594 1022h45l-623 -1063h-51z" />
<glyph unicode="w" horiz-adv-x="1540" d="M279 1063h40l97 -1022h4l543 1022h63l107 -1022h4l536 1022h41l-561 -1063h-53l-111 1022h-4l-547 -1022h-57z" />
<glyph unicode="x" horiz-adv-x="1009" d="M57 0l539 551l-274 512h53l252 -481l465 481h49l-494 -512l305 -551h-51l-289 520l-503 -520h-52z" />
<glyph unicode="y" horiz-adv-x="935" d="M76 -367l10 41q121 0 184 37q55 31 103 113q53 92 106 186l-217 1053h45l203 -1008l592 1008h43l-758 -1280q-57 -96 -135 -127q-59 -23 -176 -23z" />
<glyph unicode="z" horiz-adv-x="839" d="M14 0l11 51l944 971h-682l8 41h725l-10 -51l-944 -971h770l-9 -41h-813z" />
<glyph unicode="{" horiz-adv-x="417" d="M123 -295q-16 55 8 178q10 41 32.5 131t33.5 140q66 305 -66 405l8 41q86 14 142 117q41 78 73 235q8 35 21.5 109t21.5 108q35 164 80 240q57 102 152 102h102l-8 -41h-98q-117 0 -172 -260q-6 -35 -21.5 -114.5t-23.5 -120.5q-72 -336 -234 -400q135 -72 64 -407 q-8 -41 -28 -121t-28 -117q-53 -256 62 -256h98l-10 -41h-103q-88 0 -106 72z" />
<glyph unicode="|" horiz-adv-x="237" d="M74 -35l327 1546h41l-327 -1546h-41z" />
<glyph unicode="}" horiz-adv-x="417" d="M-72 -367l11 41h96q70 0 112 76q33 57 60 187q8 35 22.5 113.5t22.5 119.5q72 338 233 401q-133 72 -61 406q8 41 27.5 122t27.5 118q53 254 -63 253h-99l9 41h102q90 0 111 -71q16 -57 -11 -180q-8 -39 -31.5 -130.5t-33.5 -140.5q-63 -303 67 -401l-10 -41 q-86 -14 -139 -119q-41 -78 -76 -235q-6 -35 -20 -109q-14 -72 -23 -109q-35 -164 -78 -239q-59 -102 -155 -103h-101z" />
<glyph unicode="~" horiz-adv-x="1032" d="M154 436q131 180 278 180q86 0 228.5 -71.5t193.5 -71.5q84 0 211 150l39 -13q-147 -178 -262 -178q-66 0 -196 71.5t-222 71.5q-113 0 -234 -151z" />
<glyph unicode="&#xa1;" horiz-adv-x="229" d="M0 -367l236 1112h40l-237 -1112h-39zM272 918l43 202h41l-43 -202h-41z" />
<glyph unicode="&#xa2;" horiz-adv-x="952" d="M147 535q45 215 187 370q158 172 366 180l39 183h41l-39 -183q166 -4 256 -92q98 -92 80 -252h-41q10 143 -72.5 222t-230.5 81l-219 -1028h10q150 0 274 98.5t169 247.5h41q-57 -174 -192.5 -279.5t-309.5 -107.5l-47 -225h-41l47 225q-209 8 -291 183q-74 156 -27 377z M188 535q-43 -205 21 -347q74 -166 264 -172l219 1028q-193 -6 -336 -167q-125 -141 -168 -342z" />
<glyph unicode="&#xa3;" horiz-adv-x="1134" d="M61 6q287 209 332 426q37 168 -6 281h-156l11 43h135q-29 90 -58 178q-27 106 -8 192q41 186 205 291q145 94 340 94q215 0 322 -116q113 -123 59 -330l-18 -72h-41l14 62q47 195 -49 305t-295 110q-178 0 -309 -81q-150 -92 -187 -263q-16 -84 10 -192q31 -88 62 -178 h324l-11 -43h-305q39 -111 2 -281q-45 -219 -287 -395l5 -4q119 78 225 78q70 0 189.5 -52.5t187.5 -52.5q90 0 184 53q63 35 166 119l20 -28q-199 -184 -379 -185q-72 0 -190.5 51.5t-185.5 51.5q-131 0 -279 -103z" />
<glyph unicode="&#xa4;" horiz-adv-x="1150" d="M135 238l141 118q-102 147 -61 346q43 201 211 349l-92 118l35 29l92 -119q174 137 373 138q201 0 315 -138l141 119l23 -29l-142 -118q103 -146 60 -349q-41 -199 -209 -346l92 -118l-35 -29l-90 119q-178 -137 -375 -138q-199 0 -313 138l-143 -119zM256 702 q-41 -193 67.5 -332t301.5 -139q190 0 357 139t208 332q43 195 -64.5 334.5t-300.5 139.5t-360.5 -140.5t-208.5 -333.5z" />
<glyph unicode="&#xa5;" horiz-adv-x="1097" d="M305 379l8 41h301l45 211h-301l9 41h282l-313 805h45l309 -793h4l649 793h46l-658 -805h279l-9 -41h-301l-45 -211h301l-8 -41h-301l-80 -379h-41l80 379h-301z" />
<glyph unicode="&#xa6;" horiz-adv-x="194" d="M74 -35l127 596h41l-127 -596h-41zM276 915l125 596h41l-125 -596h-41z" />
<glyph unicode="&#xa7;" horiz-adv-x="997" d="M143 10h41q-78 -360 240 -360q115 0 211 59q109 68 133 176q33 160 -131 295q-156 111 -311 221q-164 143 -125 324q18 92 106 176q80 78 178 111q-90 90 -61 225q29 133 141 207q104 68 240 67q164 0 237 -110q68 -106 33 -273h-41q29 158 -26 246q-61 96 -215 96 q-117 0 -205 -59q-100 -66 -125 -178q-27 -133 141 -258q156 -111 316 -221q159 -148 120 -332q-18 -94 -107 -173t-192 -108q102 -102 74 -229q-31 -145 -140.5 -224t-258.5 -79q-178 0 -246 112q-66 106 -27 289zM238 707q-31 -141 163 -308q154 -115 308 -229 q98 20 185 92t105 162q27 121 -61 235q-63 86 -207 183q-109 72 -215 141q-98 -29 -178 -105.5t-100 -170.5z" />
<glyph unicode="&#xa8;" horiz-adv-x="528" d="M340 1221l37 168h41l-37 -168h-41zM659 1221l37 168h41l-37 -168h-41z" />
<glyph unicode="&#xa9;" horiz-adv-x="1642" d="M211 739q68 317 340 544.5t590 227.5q317 0 493.5 -227.5t108.5 -544.5t-340.5 -545.5t-589.5 -228.5t-493.5 228.5t-108.5 545.5zM252 739q-63 -301 102.5 -517t466.5 -216t559.5 216t321.5 517t-102.5 516t-466.5 215t-559.5 -215t-321.5 -516zM547 727 q43 207 191.5 339t353.5 132q150 0 236.5 -84t74.5 -229h-41q10 127 -70 199.5t-209 72.5q-186 0 -320 -119.5t-175 -308.5q-39 -188 43 -311q86 -129 272 -129q123 0 230.5 80t162.5 202h41q-63 -141 -178 -229q-125 -94 -264 -94q-203 0 -297 137t-51 342z" />
<glyph unicode="&#xaa;" horiz-adv-x="722" d="M254 934q31 141 170 176q8 4 246 23q133 12 149 90q37 168 -162 168t-258 -174h-41q68 215 308 215t200 -185l-84 -393q-8 -41 62 -39l-8 -41q-86 -2 -97 33q-4 14 17 115h-4q-2 -74 -127 -123q-98 -39 -179 -39q-94 0 -147 39q-63 45 -45 135zM295 934 q-27 -133 162 -133q117 0 208.5 63t116.5 178l21 101h-4q-35 -41 -160 -49q-166 -12 -211 -25q-111 -33 -133 -135z" />
<glyph unicode="&#xab;" horiz-adv-x="509" d="M139 539l8 32l273 287l-17 -72l-219 -231l121 -231l-16 -74zM330 539l8 32l272 287l-16 -72l-219 -231l121 -231l-17 -74z" />
<glyph unicode="&#xac;" horiz-adv-x="1116" d="M147 702l11 43h1032l-119 -552h-41l109 509h-992z" />
<glyph unicode="&#xad;" horiz-adv-x="522" d="M193 535l8 40h358l-8 -40h-358z" />
<glyph unicode="&#xae;" horiz-adv-x="1642" d="M211 739q68 317 340 544.5t590 227.5q317 0 493.5 -227.5t108.5 -544.5t-340.5 -545.5t-589.5 -228.5t-493.5 228.5t-108.5 545.5zM252 739q-63 -301 102.5 -517t466.5 -216t559.5 216t321.5 517t-102.5 516t-466.5 215t-559.5 -215t-321.5 -516zM621 279l190 890h289 q291 0 239 -241q-23 -102 -98.5 -162.5t-179.5 -69.5l180 -417h-51l-176 413q-23 -2 -264 -2l-88 -411h-41zM760 733h213q284 0 325 195q41 199 -213 198h-243z" />
<glyph unicode="&#xaf;" horiz-adv-x="641" d="M356 1298l11 41h475l-11 -41h-475z" />
<glyph unicode="&#xb0;" horiz-adv-x="700" d="M297 1135q27 121 130 209t226 88q121 0 189 -88t41 -209q-25 -123 -129.5 -211t-227.5 -88q-125 0 -189.5 88t-39.5 211zM338 1135q-23 -106 33.5 -182t163.5 -76q106 0 195 76t112 182t-34.5 181t-162.5 75q-100 0 -192.5 -78t-114.5 -178z" />
<glyph unicode="&#xb1;" horiz-adv-x="1036" d="M2 0l8 41h1032l-8 -41h-1032zM127 596l10 41h496l86 410h41l-86 -410h495l-10 -41h-495l-86 -410h-41l86 410h-496z" />
<glyph unicode="&#xb2;" horiz-adv-x="696" d="M182 573q27 121 191 230q150 90 299 178q166 111 192 236q18 90 -49 137q-55 37 -151 37q-250 0 -304 -250h-41q68 291 353 291q117 0 180 -48q76 -57 53 -167q-29 -131 -188 -248q-6 -4 -291 -176q-162 -98 -188 -179h563l-8 -41h-611z" />
<glyph unicode="&#xb3;" horiz-adv-x="749" d="M231 858h41q-55 -258 234 -258q104 0 190 49q98 57 119 158q27 123 -67 168q-63 31 -203 31l8 43q131 0 201 24q111 41 135 152q35 166 -211 166q-266 0 -316 -234h-40q27 133 133 207q96 68 233 68q285 0 242 -207q-20 -88 -92 -142.5t-160 -54.5v-4q98 -6 149 -59 q49 -60 29 -158q-25 -117 -137 -186q-98 -61 -219 -62q-152 0 -224 72q-78 80 -45 227z" />
<glyph unicode="&#xb4;" horiz-adv-x="344" d="M268 1214l332 297h59l-360 -297h-31z" />
<glyph unicode="&#xb6;" horiz-adv-x="976" d="M250 1071q41 201 196 307q141 98 347 99h413l-375 -1766h-40l366 1725h-334l-366 -1725h-41l205 967q-180 0 -289 104q-121 113 -82 289z" />
<glyph unicode="&#xb7;" horiz-adv-x="260" d="M213 702q14 68 80 68q65 0 51 -68q-12 -66 -78 -65q-66 0 -53 65z" />
<glyph unicode="&#xb8;" horiz-adv-x="440" d="M-43 -344l27 41q80 -35 139 -35q160 0 184 111q8 37 -23.5 59.5t-72.5 22.5q-66 0 -115 -27l-26 20l149 152h41l-110 -117q10 2 36 8q20 4 35 5q154 0 127 -123q-33 -152 -233 -152q-57 0 -158 35z" />
<glyph unicode="&#xb9;" horiz-adv-x="370" d="M258 1221l8 39q143 43 275 157h45l-180 -844h-41l170 797h-5q-92 -102 -272 -149z" />
<glyph unicode="&#xba;" horiz-adv-x="735" d="M291 1098q31 141 136 237.5t245 96.5q141 0 207 -99q59 -94 28 -235q-29 -143 -131 -238q-109 -100 -250 -100q-139 0 -201.5 98t-33.5 240zM332 1098q-25 -121 32.5 -209t174.5 -88q119 0 213 92q89 86 114 205q27 119 -28.5 206t-173.5 87q-117 0 -211.5 -87 t-120.5 -206z" />
<glyph unicode="&#xbb;" horiz-adv-x="509" d="M133 250l17 74l219 231l-121 231l16 72l150 -287l-8 -32zM324 250l16 74l219 231l-121 231l17 72l149 -287l-8 -32z" />
<glyph unicode="&#xbc;" horiz-adv-x="1368" d="M111 -70l1304 1547h47l-1304 -1547h-47zM299 1221l8 39q143 43 275 157h45l-181 -844h-40l169 797h-4q-92 -102 -272 -149zM723 211l12 51l565 582h52l-125 -592h155l-10 -41h-155l-43 -211h-41l43 211h-453zM776 252h410l108 532z" />
<glyph unicode="&#xbd;" horiz-adv-x="1519" d="M96 -70l1305 1547h47l-1305 -1547h-47zM305 1221l8 39q143 43 275 157h45l-180 -844h-41l170 797h-4q-94 -102 -273 -149zM881 0q25 123 188 231q152 90 301 179q164 111 191 233q20 92 -50 137q-55 37 -151 37q-252 0 -303 -250h-41q68 291 354 291q117 0 180 -47 q76 -57 52 -168q-27 -131 -187 -248q-8 -4 -295 -176q-160 -98 -184 -178h563l-8 -41h-610z" />
<glyph unicode="&#xbe;" horiz-adv-x="1568" d="M223 858h41q-55 -258 234 -258q104 0 190 49q98 57 119 158q23 104 -47 158q-61 45 -168 45q-29 0 -55 -4l8 43q131 0 200 24q111 41 136 152q35 166 -211 166q-266 0 -316 -234h-41q27 133 133 207q96 68 234 68q285 0 242 -207q-20 -88 -92 -142.5t-160 -54.5v-4 q98 -6 147 -59q51 -60 31 -158q-25 -117 -137 -186q-98 -61 -219 -62q-152 0 -226 72q-76 80 -43 227zM317 -70l1305 1547h47l-1304 -1547h-48zM918 211l12 51l565 582h51l-125 -592h156l-10 -41h-156l-43 -211h-41l43 211h-452zM971 252h409l109 532z" />
<glyph unicode="&#xbf;" horiz-adv-x="886" d="M12 -47q33 158 162 276q119 98 236 199q133 131 172 317h41q-43 -197 -177 -331q-117 -100 -233 -201q-131 -117 -160 -260q-33 -147 62 -229q82 -74 235 -74q199 0 334 129q123 119 166 321h41q-47 -219 -186 -350q-150 -141 -363 -141q-170 0 -262 86q-100 94 -68 258z M621 918l43 202h41l-43 -202h-41z" />
<glyph unicode="&#xc0;" horiz-adv-x="1269" d="M25 0l907 1477h53l264 -1477h-45l-90 485h-745l-297 -485h-47zM393 528h713l-154 908h-4zM827 1880h60l192 -297h-30z" />
<glyph unicode="&#xc1;" horiz-adv-x="1271" d="M20 0l908 1477h53l264 -1477h-45l-90 485h-745l-297 -485h-48zM389 528h713l-154 908h-4zM858 1583l334 297h59l-362 -297h-31z" />
<glyph unicode="&#xc2;" horiz-adv-x="1280" d="M27 0l907 1477h53l264 -1477h-45l-90 485h-745l-297 -485h-47zM395 528h713l-154 908h-4zM731 1593l293 287h31l172 -287h-41l-158 254l-256 -254h-41z" />
<glyph unicode="&#xc3;" horiz-adv-x="1267" d="M20 0l908 1477h53l264 -1477h-45l-90 485h-745l-297 -485h-48zM389 528h713l-154 908h-4zM707 1614q12 55 65 109.5t109 54.5q49 0 120.5 -60.5t112.5 -60.5q45 0 81 34.5t44 80.5h41q-14 -68 -61.5 -112t-112.5 -44q-55 0 -121.5 60.5t-112.5 60.5q-41 0 -78.5 -40 t-45.5 -83h-41z" />
<glyph unicode="&#xc4;" horiz-adv-x="1267" d="M20 0l908 1477h53l264 -1477h-45l-90 485h-745l-297 -485h-48zM389 528h713l-154 908h-4zM791 1589l36 168h41l-37 -168h-40zM1110 1589l37 168h41l-37 -168h-41z" />
<glyph unicode="&#xc5;" horiz-adv-x="1288" d="M31 0l907 1477h53l264 -1477h-45l-90 485h-745l-297 -485h-47zM399 528h713l-154 908h-4zM827 1706q14 72 80 127t137 55q72 0 115 -55t29 -127q-16 -74 -81 -128t-138 -54q-74 0 -116 54t-26 128zM868 1706q-12 -57 20 -99t89 -42t107.5 42t62.5 99t-20.5 99t-90.5 42 q-57 0 -106 -42t-62 -99z" />
<glyph unicode="&#xc6;" horiz-adv-x="1777" d="M31 0l1087 1477h961l-8 -41h-803l-138 -645h738l-10 -41h-738l-149 -709h803l-9 -41h-843l118 567h-548l-416 -567h-45zM522 608h529l176 832h-97z" />
<glyph unicode="&#xc7;" horiz-adv-x="1380" d="M195 727q70 330 292 549q240 236 562 235q215 0 360 -129q158 -141 123 -348h-41q25 195 -117 320q-133 117 -334 116q-301 0 -526 -225q-213 -209 -278 -518q-63 -295 55 -498q127 -223 411 -223q254 0 451 164q184 154 274 410h41q-96 -272 -290 -437 q-205 -174 -471 -178l-78 -82q10 2 37 8q20 4 34 5q154 0 127 -123q-33 -152 -233 -152q-57 0 -160 35l27 41q82 -35 141 -35q160 0 184 111q8 37 -23.5 59.5t-72.5 22.5q-66 0 -115 -27l-26 20l117 117q-293 12 -418 244q-119 213 -53 518z" />
<glyph unicode="&#xc8;" horiz-adv-x="1040" d="M61 0l314 1477h971l-9 -41h-929l-138 -645h875l-10 -41h-875l-149 -709h938l-9 -41h-979zM690 1880h60l192 -297h-31z" />
<glyph unicode="&#xc9;" horiz-adv-x="1036" d="M57 0l314 1477h970l-8 -41h-930l-137 -645h875l-11 -41h-874l-150 -709h938l-8 -41h-979zM721 1583l334 297h59l-362 -297h-31z" />
<glyph unicode="&#xca;" horiz-adv-x="1042" d="M63 0l314 1477h971l-9 -41h-929l-138 -645h875l-10 -41h-875l-149 -709h938l-9 -41h-979zM594 1593l293 287h31l172 -287h-41l-158 254l-256 -254h-41z" />
<glyph unicode="&#xcb;" horiz-adv-x="1044" d="M66 0l313 1477h971l-9 -41h-929l-138 -645h875l-10 -41h-875l-149 -709h938l-9 -41h-978zM662 1589l36 168h41l-37 -168h-40zM981 1589l37 168h41l-37 -168h-41z" />
<glyph unicode="&#xcc;" horiz-adv-x="335" d="M190 0l314 1477h41l-314 -1477h-41zM399 1880h60l192 -297h-30z" />
<glyph unicode="&#xcd;" horiz-adv-x="348" d="M111 0l313 1477h41l-313 -1477h-41zM354 1583l334 297h60l-363 -297h-31z" />
<glyph unicode="&#xce;" horiz-adv-x="516" d="M238 0l313 1477h41l-313 -1477h-41zM348 1593l293 287h31l172 -287h-41l-158 254l-256 -254h-41z" />
<glyph unicode="&#xcf;" horiz-adv-x="376" d="M168 0l313 1477h41l-313 -1477h-41zM344 1589l37 168h41l-37 -168h-41zM664 1589l36 168h41l-36 -168h-41z" />
<glyph unicode="&#xd0;" horiz-adv-x="1380" d="M186 0l158 750h-131l10 41h131l146 686h512q315 0 430 -215q105 -195 35 -523q-70 -334 -287 -532q-227 -207 -555 -207h-449zM236 41h417q305 0 518 201q199 188 265 497q68 319 -29 498q-106 199 -414 199h-461l-137 -645h609l-11 -41h-608z" />
<glyph unicode="&#xd1;" horiz-adv-x="1232" d="M63 0l314 1477h61l697 -1426h4l303 1426h41l-314 -1477h-61l-698 1425h-4l-302 -1425h-41zM688 1614q12 55 65.5 109.5t108.5 54.5q49 0 121 -60.5t113 -60.5q45 0 80.5 34.5t44.5 80.5h41q-14 -68 -61.5 -112t-113.5 -44q-55 0 -121.5 60.5t-111.5 60.5q-41 0 -79 -40 t-46 -83h-41z" />
<glyph unicode="&#xd2;" horiz-adv-x="1429" d="M199 739q70 326 286 541q233 231 551 231q317 0 455 -231q125 -215 55 -541t-284 -540q-236 -233 -553 -234q-317 0 -455 234q-125 215 -55 540zM240 739q-66 -309 51 -512q125 -221 426 -221t522 221q200 203 266 512t-49 512q-127 219 -428 219t-520 -219 q-203 -203 -268 -512zM905 1880h60l192 -297h-31z" />
<glyph unicode="&#xd3;" horiz-adv-x="1429" d="M195 739q70 326 284 541q236 231 553 231t455 -231q125 -215 55 -541t-285 -540q-236 -233 -552 -234q-317 0 -455 234q-125 215 -55 540zM236 739q-66 -309 49 -512q127 -221 428 -221t522 221q200 203 266 512t-49 512q-127 219 -428 219t-522 -219 q-201 -203 -266 -512zM936 1583l334 297h59l-362 -297h-31z" />
<glyph unicode="&#xd4;" horiz-adv-x="1433" d="M199 739q70 326 284 541q236 231 553 231t455 -231q125 -215 55 -541t-284 -540q-236 -233 -553 -234q-317 0 -455 234q-125 215 -55 540zM240 739q-66 -309 49 -512q127 -221 428 -221t522 221q200 203 266 512t-49 512q-127 219 -428 219t-522 -219 q-201 -203 -266 -512zM807 1593l293 287h30l173 -287h-41l-158 254l-256 -254h-41z" />
<glyph unicode="&#xd5;" horiz-adv-x="1441" d="M203 739q70 326 284 541q236 231 553 231t455 -231q125 -215 55 -541t-284 -540q-236 -233 -553 -234q-317 0 -455 234q-125 215 -55 540zM244 739q-66 -309 49 -512q127 -221 428 -221t522 221q200 203 266 512t-49 512q-127 219 -428 219t-522 -219 q-201 -203 -266 -512zM793 1614q12 55 65 109.5t109 54.5q49 0 121.5 -60.5t111.5 -60.5q45 0 81 34.5t44 80.5h41q-14 -68 -61.5 -112t-112.5 -44q-53 0 -120.5 60.5t-113.5 60.5q-41 0 -78.5 -40t-45.5 -83h-41z" />
<glyph unicode="&#xd6;" horiz-adv-x="1441" d="M203 739q70 326 286 541q233 231 551 231q317 0 455 -231q125 -215 55 -541t-284 -540q-236 -233 -553 -234q-317 0 -455 234q-125 215 -55 540zM244 739q-66 -309 51 -512q125 -221 426 -221t522 221q200 203 266 512t-49 512q-127 219 -428 219t-520 -219 q-203 -203 -268 -512zM877 1589l36 168h41l-36 -168h-41zM1196 1589l37 168h41l-37 -168h-41z" />
<glyph unicode="&#xd7;" horiz-adv-x="974" d="M96 131l473 393l-305 391l33 29l303 -395l475 395l25 -29l-475 -391l307 -393l-35 -31l-307 396l-471 -396z" />
<glyph unicode="&#xd8;" horiz-adv-x="1472" d="M86 35l186 168q-121 213 -53 536q70 326 285 541q236 231 553 231q297 0 436 -204l149 135l27 -25l-156 -141q124 -209 54 -537q-70 -326 -287 -540q-233 -233 -551 -234q-303 0 -436 209l-180 -164zM260 739q-63 -305 47 -503l1151 1040q-131 195 -409 194 q-301 0 -523 -219q-201 -203 -266 -512zM328 205q123 -199 409 -199q301 0 520 221q203 203 269 512q66 307 -47 504z" />
<glyph unicode="&#xd9;" horiz-adv-x="1175" d="M170 551l197 926h41l-197 -926q-117 -545 379 -545t612 545l197 926h41l-197 -926q-59 -276 -221 -426q-170 -160 -440 -160t-375 160q-96 150 -37 426zM778 1880h60l192 -297h-31z" />
<glyph unicode="&#xda;" horiz-adv-x="1177" d="M166 551l196 926h41l-196 -926q-117 -545 379 -545t612 545l197 926h41l-197 -926q-59 -276 -221 -426q-170 -160 -440 -160t-375 160q-96 150 -37 426zM809 1583l334 297h59l-362 -297h-31z" />
<glyph unicode="&#xdb;" horiz-adv-x="1183" d="M172 551l197 926h41l-197 -926q-117 -545 379 -545t612 545l197 926h41l-197 -926q-59 -276 -221 -426q-170 -160 -440 -160t-375 160q-96 150 -37 426zM682 1593l293 287h31l172 -287h-41l-158 254l-256 -254h-41z" />
<glyph unicode="&#xdc;" horiz-adv-x="1191" d="M176 551l197 926h41l-197 -926q-117 -545 379 -545t612 545l197 926h41l-197 -926q-59 -276 -221 -426q-170 -160 -440 -160t-375 160q-96 150 -37 426zM752 1589l36 168h41l-36 -168h-41zM1071 1589l37 168h41l-37 -168h-41z" />
<glyph unicode="&#xdd;" horiz-adv-x="1241" d="M322 1477h51l389 -811l735 811h49l-774 -854l-131 -623h-41l131 623zM852 1628l334 297h59l-362 -297h-31z" />
<glyph unicode="&#xde;" horiz-adv-x="1120" d="M82 0l313 1477h41l-55 -256q51 0 191.5 7t215.5 7q270 0 392 -74q163 -100 110 -344q-51 -242 -270 -340q-162 -72 -442 -71q-72 0 -197 5t-170 5l-88 -416h-41zM219 457h551q172 0 308 95t171 265q78 362 -325 363h-551z" />
<glyph unicode="&#xdf;" horiz-adv-x="944" d="M78 0l244 1151q35 166 151.5 258t282.5 92q154 0 243 -90q94 -98 62 -250q-29 -131 -113 -219q-90 -94 -219 -115v-4q330 -29 254 -389q-53 -244 -213 -346q-139 -88 -391 -88l8 41l53 -2q414 -16 502 395q45 213 -74 299q-92 68 -319 68l8 41q395 0 463 319 q29 137 -55 221q-78 78 -217 78q-152 0 -253.5 -81t-134.5 -234l-241 -1145h-41z" />
<glyph unicode="&#xe0;" d="M172 532q47 227 203 386q168 170 389 169q70 0 130 -9t114.5 -25.5t104.5 -38t101 -41.5l-206 -973h-41l61 291q-31 -57 -110 -144q-168 -172 -392 -172q-221 0 -317 172q-86 156 -37 385zM213 532q-45 -213 33 -356q86 -160 291 -160t358 160q139 145 184 356l88 406 q-94 49 -187 80t-224 29q-203 0 -357 -160q-141 -143 -186 -355zM707 1511h59l195 -297h-31z" />
<glyph unicode="&#xe1;" d="M172 532q47 227 203 386q168 170 389 169q70 0 130 -9t114.5 -25.5t104.5 -38t101 -41.5l-206 -973h-41l61 291q-31 -57 -110 -144q-168 -172 -392 -172q-221 0 -317 172q-86 156 -37 385zM213 532q-45 -213 33 -356q86 -160 291 -160t358 160q139 145 184 356l88 406 q-94 49 -187 80t-224 29q-203 0 -357 -160q-141 -143 -186 -355zM637 1214l332 297h59l-360 -297h-31z" />
<glyph unicode="&#xe2;" d="M172 532q47 227 203 386q168 170 389 169q70 0 130 -9t114.5 -25.5t104.5 -38t101 -41.5l-206 -973h-41l61 291q-31 -57 -110 -144q-168 -172 -392 -172q-221 0 -317 172q-86 156 -37 385zM213 532q-45 -213 33 -356q86 -160 291 -160t358 160q139 145 184 356l88 406 q-94 49 -187 80t-224 29q-203 0 -357 -160q-141 -143 -186 -355zM557 1225l291 286h30l174 -286h-40l-158 254l-256 -254h-41z" />
<glyph unicode="&#xe3;" d="M172 532q47 227 203 386q168 170 389 169q70 0 130 -9t114.5 -25.5t104.5 -38t101 -41.5l-206 -973h-41l61 291q-31 -57 -110 -144q-168 -172 -392 -172q-221 0 -317 172q-86 156 -37 385zM213 532q-45 -213 33 -356q86 -160 291 -160t358 160q139 145 184 356l88 406 q-94 49 -187 80t-224 29q-203 0 -357 -160q-141 -143 -186 -355zM539 1245q10 55 65.5 109.5t108.5 54.5q51 0 122.5 -60.5t110.5 -60.5q45 0 80 35t45 80h41q-14 -68 -60 -112t-114 -44q-53 0 -121.5 60.5t-113.5 60.5q-39 0 -76 -40t-47 -83h-41z" />
<glyph unicode="&#xe4;" d="M172 532q47 227 203 386q168 170 389 169q70 0 130 -9t114.5 -25.5t104.5 -38t101 -41.5l-206 -973h-41l61 291q-31 -57 -110 -144q-168 -172 -392 -172q-221 0 -317 172q-86 156 -37 385zM213 532q-45 -213 33 -356q86 -160 291 -160t358 160q139 145 184 356l88 406 q-94 49 -187 80t-224 29q-203 0 -357 -160q-141 -143 -186 -355zM623 1221l37 168h41l-37 -168h-41zM942 1221l37 168h41l-37 -168h-41z" />
<glyph unicode="&#xe5;" d="M172 532q47 227 203 386q168 170 389 169q70 0 130 -9t114.5 -25.5t104.5 -38t101 -41.5l-206 -973h-41l61 291q-31 -57 -110 -144q-168 -172 -392 -172q-221 0 -317 172q-86 156 -37 385zM213 532q-45 -213 33 -356q86 -160 291 -160t358 160q139 145 184 356l88 406 q-94 49 -187 80t-224 29q-203 0 -357 -160q-141 -143 -186 -355zM657 1380q14 72 80 126.5t137 54.5q72 0 115 -54.5t29 -126.5q-16 -74 -81 -127t-139 -53q-72 0 -114.5 54.5t-26.5 125.5zM698 1380q-12 -57 20.5 -98t88.5 -41q57 0 107.5 41t62.5 98t-21 98.5t-90 41.5 q-55 0 -105.5 -41t-62.5 -99z" />
<glyph unicode="&#xe6;" horiz-adv-x="1988" d="M182 532q47 227 203 386q168 170 389 169q221 0 318 -172q37 -66 49 -141l61 289h41l-76 -350q35 55 70 107t72 91q168 176 381 176q229 0 317 -172q76 -152 25 -391h-881q-45 -225 18 -356q74 -152 289 -152q168 0 298 93.5t190 259.5h41q-59 -180 -205 -287t-328 -107 q-236 0 -321 166q-41 84 -43 199l-72 -340h-41l61 291q-31 -57 -110 -144q-168 -172 -391 -172q-221 0 -318 172q-86 156 -37 385zM223 532q-45 -213 33 -356q86 -160 291 -160t358 160q140 145 185 356q43 209 -33 355q-88 160 -291 160t-356 -160q-141 -143 -187 -355z M1159 565h840q43 203 -33 336q-84 145 -280 146q-190 0 -340 -150q-133 -133 -187 -332z" />
<glyph unicode="&#xe7;" horiz-adv-x="974" d="M145 508q53 248 207 405q168 174 408 174q160 0 250 -94t73 -252h-41q8 141 -69.5 223.5t-220.5 82.5q-221 0 -377 -164q-139 -145 -189 -375q-43 -205 37 -342q86 -150 285 -150q158 0 289 95.5t174 250.5h41q-53 -174 -189.5 -278t-310.5 -109l-88 -92q10 2 37 8 q20 4 35 5q154 0 127 -123q-33 -152 -234 -152q-57 0 -160 35l27 41q82 -35 141 -35q160 0 185 111q8 37 -24 59.5t-73 22.5q-66 0 -114 -27l-27 20l125 127q-201 12 -287 170q-82 147 -37 363z" />
<glyph unicode="&#xe8;" horiz-adv-x="995" d="M156 532q47 221 196 379q166 176 381 176q229 0 318 -172q75 -151 24 -391h-880q-45 -225 18 -356q74 -152 289 -152q168 0 298 93.5t189 259.5h41q-59 -180 -205.5 -287t-326.5 -107q-238 0 -322 166q-74 145 -20 391zM203 565h839q43 203 -32 336q-84 145 -281 146 q-190 0 -340 -150q-135 -133 -186 -332zM604 1466h60l192 -297h-31z" />
<glyph unicode="&#xe9;" horiz-adv-x="995" d="M147 532q47 221 197 379q166 176 381 176q229 0 317 -172q76 -151 25 -391h-881q-45 -225 19 -356q74 -152 289 -152q168 0 298 93.5t189 259.5h41q-59 -180 -205.5 -287t-327.5 -107q-238 0 -321 166q-74 145 -21 391zM195 565h839q43 203 -33 336q-84 145 -280 146 q-190 0 -340 -150q-135 -133 -186 -332zM631 1169l334 297h59l-362 -297h-31z" />
<glyph unicode="&#xea;" horiz-adv-x="1005" d="M158 532q47 221 196 379q166 176 381 176q229 0 318 -172q75 -151 24 -391h-880q-45 -225 18 -356q74 -152 289 -152q168 0 298 93.5t189 259.5h41q-59 -180 -205.5 -287t-326.5 -107q-238 0 -322 166q-74 145 -20 391zM205 565h839q43 203 -32 336q-84 145 -281 146 q-190 0 -340 -150q-135 -133 -186 -332zM508 1180l293 286h30l173 -286h-41l-158 254l-256 -254h-41z" />
<glyph unicode="&#xeb;" horiz-adv-x="1009" d="M160 532q47 221 196 379q166 176 381 176q229 0 318 -172q75 -151 24 -391h-880q-45 -225 18 -356q74 -152 289 -152q168 0 298 93.5t189 259.5h41q-59 -180 -205.5 -287t-326.5 -107q-238 0 -322 166q-74 145 -20 391zM207 565h840q43 203 -33 336q-84 145 -281 146 q-190 0 -340 -150q-135 -133 -186 -332zM578 1176l34 167h41l-35 -167h-40zM897 1176l35 167h41l-35 -167h-41z" />
<glyph unicode="&#xec;" horiz-adv-x="335" d="M193 0l225 1063h41l-226 -1063h-40zM313 1466h60l192 -297h-30z" />
<glyph unicode="&#xed;" horiz-adv-x="348" d="M109 0l225 1063h41l-225 -1063h-41zM264 1169l334 297h59l-362 -297h-31z" />
<glyph unicode="&#xee;" horiz-adv-x="518" d="M238 0l225 1063h41l-225 -1063h-41zM260 1180l293 286h31l172 -286h-41l-158 254l-256 -254h-41z" />
<glyph unicode="&#xef;" horiz-adv-x="393" d="M176 0l225 1063h41l-225 -1063h-41zM266 1176l35 167h41l-35 -167h-41zM586 1176l35 167h41l-35 -167h-41z" />
<glyph unicode="&#xf0;" horiz-adv-x="1036" d="M150 512q47 223 202 375q166 162 385 162q223 0 301 -150h9q-66 225 -242 412l-281 -140l-24 31l278 137q-70 70 -166 125l39 29q98 -57 170 -131l281 139l24 -33l-276 -139q338 -389 248 -817q-49 -223 -203 -375q-168 -160 -387 -160q-217 0 -315 162q-92 150 -43 373z M190 512q-45 -207 39 -344q88 -150 289 -150t354 150q140 139 185 344q43 205 -39 344q-88 152 -289 152t-352 -150q-143 -139 -187 -346z" />
<glyph unicode="&#xf1;" horiz-adv-x="925" d="M66 0l225 1063h41l-56 -262h5q59 133 179 209.5t259 76.5q174 0 253 -104t42 -278l-150 -705h-41l148 698q35 160 -34 254.5t-226 94.5q-180 0 -316 -136q-123 -123 -162 -309l-127 -602h-40zM449 1200q12 55 65 109.5t109 54.5q49 0 122.5 -60.5t112.5 -60.5q45 0 80 35 t43 80h41q-14 -68 -61.5 -112t-112.5 -44q-53 0 -121 60.5t-113 60.5q-41 0 -77.5 -40t-47.5 -83h-40z" />
<glyph unicode="&#xf2;" horiz-adv-x="1024" d="M154 532q47 227 202 386q168 170 389 169q221 0 318 -172q86 -156 39 -383q-49 -229 -203 -385q-168 -172 -391 -172q-221 0 -318 172q-86 156 -36 385zM195 532q-45 -213 32 -356q86 -160 291 -160t359 160q139 145 184 356q43 209 -33 355q-88 160 -291 160t-356 -160 q-141 -143 -186 -355zM616 1466h60l192 -297h-30z" />
<glyph unicode="&#xf3;" horiz-adv-x="1024" d="M147 532q47 227 203 386q168 170 389 169q221 0 318 -172q86 -156 39 -383q-49 -229 -203 -385q-168 -172 -391 -172q-221 0 -318 172q-86 156 -37 385zM188 532q-45 -213 33 -356q86 -160 291 -160t358 160q140 145 185 356q43 209 -33 355q-88 160 -291 160t-356 -160 q-141 -143 -187 -355zM645 1169l334 297h59l-362 -297h-31z" />
<glyph unicode="&#xf4;" horiz-adv-x="1034" d="M156 532q47 227 202 386q168 170 390 169q221 0 317 -172q86 -156 39 -383q-49 -229 -203 -385q-168 -172 -391 -172q-221 0 -317 172q-86 156 -37 385zM197 532q-45 -213 32 -356q86 -160 291 -160t359 160q139 145 184 356q43 209 -33 355q-88 160 -291 160t-356 -160 q-141 -143 -186 -355zM520 1180l293 286h31l172 -286h-41l-158 254l-256 -254h-41z" />
<glyph unicode="&#xf5;" horiz-adv-x="1042" d="M160 532q47 227 202 386q168 170 390 169q221 0 317 -172q86 -156 39 -383q-49 -229 -203 -385q-168 -172 -391 -172q-221 0 -317 172q-86 156 -37 385zM201 532q-45 -213 32 -356q86 -160 291 -160t359 160q139 145 184 356q43 209 -33 355q-88 160 -291 160t-356 -160 q-141 -143 -186 -355zM506 1200q12 55 65.5 109.5t108.5 54.5q49 0 123 -60.5t112 -60.5q45 0 80 35t43 80h41q-14 -68 -61 -112t-113 -44q-53 0 -120.5 60.5t-112.5 60.5q-41 0 -78 -40t-47 -83h-41z" />
<glyph unicode="&#xf6;" horiz-adv-x="1038" d="M158 532q47 227 202 386q168 170 390 169q221 0 317 -172q86 -156 39 -383q-49 -229 -203 -385q-168 -172 -391 -172q-221 0 -317 172q-86 156 -37 385zM199 532q-45 -213 32 -356q86 -160 291 -160t359 160q139 145 184 356q43 209 -33 355q-88 160 -291 160t-356 -160 q-141 -143 -186 -355zM590 1176l35 167h41l-35 -167h-41zM909 1176l35 167h41l-35 -167h-41z" />
<glyph unicode="&#xf7;" horiz-adv-x="1044" d="M113 502l8 43h1032l-8 -43h-1032zM455 84q18 86 102 86q35 0 54.5 -24.5t11.5 -61.5q-16 -84 -101 -84q-84 0 -67 84zM641 963q8 37 37 60.5t65 23.5q35 0 54.5 -24.5t11.5 -59.5q-18 -86 -102 -86t-66 86z" />
<glyph unicode="&#xf8;" horiz-adv-x="1091" d="M68 45l151 129q-72 145 -26 358q47 227 202 386q168 170 389 169q215 0 310 -159l112 98l23 -29l-119 -102q76 -148 31 -363q-49 -229 -203 -385q-168 -172 -391 -172q-219 0 -314 164l-143 -123zM233 532q-41 -190 21 -327l803 692q-82 150 -281 150q-205 0 -358 -160 q-139 -143 -185 -355zM270 172q80 -156 287 -156q203 0 358 160q140 145 185 356q41 193 -27 332z" />
<glyph unicode="&#xf9;" horiz-adv-x="901" d="M129 358l150 705h40l-149 -698q-33 -160 34.5 -254.5t225.5 -94.5q180 0 315 136q123 123 162 309l129 602h41l-225 -1063h-41l55 262h-4q-61 -133 -181 -210t-259 -77q-174 0 -252 104.5t-41 278.5zM553 1466h59l193 -297h-31z" />
<glyph unicode="&#xfa;" horiz-adv-x="903" d="M121 358l149 705h41l-149 -698q-33 -160 34.5 -254.5t225.5 -94.5q180 0 315 136q123 123 162 309l129 602h41l-225 -1063h-41l55 262h-4q-61 -133 -181 -210t-259 -77q-174 0 -252 104.5t-41 278.5zM580 1169l333 297h60l-363 -297h-30z" />
<glyph unicode="&#xfb;" horiz-adv-x="915" d="M131 358l150 705h41l-150 -698q-33 -160 34.5 -254.5t225.5 -94.5q180 0 316 136q123 123 161 309l129 602h41l-225 -1063h-41l55 262h-4q-61 -133 -181 -210t-259 -77q-174 0 -252 104.5t-41 278.5zM457 1180l293 286h30l172 -286h-41l-157 254l-256 -254h-41z" />
<glyph unicode="&#xfc;" horiz-adv-x="923" d="M135 358l150 705h41l-150 -698q-33 -160 35 -254.5t225 -94.5q180 0 316 136q123 123 161 309l129 602h41l-225 -1063h-41l55 262h-4q-61 -133 -181 -210t-259 -77q-174 0 -252 104.5t-41 278.5zM528 1176l35 167h41l-35 -167h-41zM848 1176l35 167h41l-35 -167h-41z" />
<glyph unicode="&#xfd;" horiz-adv-x="909" d="M53 -367l10 41q119 0 185 37q53 31 102 113q53 92 107 186l-217 1053h45l202 -1008l592 1008h43l-757 -1280q-57 -96 -138 -127q-57 -23 -174 -23zM602 1214l332 297h59l-360 -297h-31z" />
<glyph unicode="&#xfe;" horiz-adv-x="1001" d="M2 -367l393 1844h41l-151 -711h4q76 152 204 236.5t285 84.5q225 0 309 -169q72 -150 23 -383q-49 -236 -184 -388q-158 -172 -383 -172q-154 0 -250 87.5t-105 234.5h-4l-141 -664h-41zM236 535q-47 -217 26 -359q80 -160 289 -160t352 162q119 138 166 357 q47 217 -16 354q-76 158 -283 158t-354 -158q-135 -139 -180 -354z" />
<glyph unicode="&#xff;" horiz-adv-x="911" d="M55 -367l11 41q121 0 186 37q53 31 100 113q53 92 107 186l-217 1053h45l202 -1008l592 1008h43l-757 -1280q-55 -96 -136 -127q-59 -23 -176 -23zM537 1221l36 168h41l-36 -168h-41zM856 1221l37 168h41l-37 -168h-41z" />
<glyph unicode="&#x152;" horiz-adv-x="2043" d="M219 731q70 328 287 545q233 236 555 235q254 0 366 -170l29 136h889l-8 -41h-848l-137 -645h749l-10 -41h-750l-149 -709h848l-8 -41h-889l28 135q-199 -170 -438 -170q-317 0 -454 230q-127 213 -60 536zM260 731q-66 -307 53 -508q127 -217 428 -217q240 1 443 189 l231 1093q-133 182 -362 182q-305 0 -525 -223q-201 -203 -268 -516z" />
<glyph unicode="&#x153;" horiz-adv-x="1824" d="M182 532q49 231 178 381q152 174 371 174q164 0 254 -99t78 -263h4q68 172 192.5 267t296.5 95q229 0 304 -176q59 -145 8 -387h-824q-109 -508 285 -508q313 0 449 342h41q-68 -176 -191 -276q-133 -106 -307 -107q-172 0 -260 91.5t-78 259.5h-4q-147 -350 -483 -351 q-217 0 -297 177q-66 152 -17 380zM223 532q-45 -213 10 -350q70 -166 271 -166q211 0 344 160q111 133 158 356q47 219 -11 353q-68 162 -272 162q-201 0 -340 -164q-115 -137 -160 -351zM1053 565h782q41 209 -18 334q-70 147 -267 148q-379 0 -497 -482z" />
<glyph unicode="&#x178;" horiz-adv-x="1245" d="M324 1477h51l389 -811l735 811h49l-774 -854l-131 -623h-41l131 623zM778 1589l37 168h41l-37 -168h-41zM1098 1589l37 168h41l-37 -168h-41z" />
<glyph unicode="&#x2c6;" horiz-adv-x="561" d="M293 1225l291 286h30l174 -286h-40l-158 254l-256 -254h-41z" />
<glyph unicode="&#x2dc;" horiz-adv-x="677" d="M332 1245q10 55 65.5 109.5t108.5 54.5q51 0 122.5 -60.5t110.5 -60.5q45 0 80 35t45 80h41q-14 -68 -60 -112t-114 -44q-53 0 -121.5 60.5t-113.5 60.5q-39 0 -76 -40t-47 -83h-41z" />
<glyph unicode="&#x2000;" horiz-adv-x="962" />
<glyph unicode="&#x2001;" horiz-adv-x="1925" />
<glyph unicode="&#x2002;" horiz-adv-x="962" />
<glyph unicode="&#x2003;" horiz-adv-x="1925" />
<glyph unicode="&#x2004;" horiz-adv-x="641" />
<glyph unicode="&#x2005;" horiz-adv-x="481" />
<glyph unicode="&#x2006;" horiz-adv-x="320" />
<glyph unicode="&#x2007;" horiz-adv-x="320" />
<glyph unicode="&#x2008;" horiz-adv-x="240" />
<glyph unicode="&#x2009;" horiz-adv-x="385" />
<glyph unicode="&#x200a;" horiz-adv-x="106" />
<glyph unicode="&#x2010;" horiz-adv-x="522" d="M193 535l8 40h358l-8 -40h-358z" />
<glyph unicode="&#x2011;" horiz-adv-x="522" d="M193 535l8 40h358l-8 -40h-358z" />
<glyph unicode="&#x2012;" horiz-adv-x="522" d="M193 535l8 40h358l-8 -40h-358z" />
<glyph unicode="&#x2013;" horiz-adv-x="1189" d="M195 535l8 40h1024l-8 -40h-1024z" />
<glyph unicode="&#x2014;" horiz-adv-x="2211" d="M195 535l8 40h2048l-8 -40h-2048z" />
<glyph unicode="&#x2018;" horiz-adv-x="176" d="M279 1012l51 243q18 92 37 127q31 59 102 95l-8 -41q-59 -33 -90 -181l-52 -243h-40z" />
<glyph unicode="&#x2019;" horiz-adv-x="180" d="M236 1012l8 41q57 33 88 180l53 244h41l-53 -244q-18 -92 -39 -127q-29 -59 -98 -94z" />
<glyph unicode="&#x201a;" horiz-adv-x="167" d="M-31 -246l8 41q66 51 107 252q8 37 17.5 90t13.5 66h41l-43 -203q-41 -184 -144 -246z" />
<glyph unicode="&#x201c;" horiz-adv-x="428" d="M291 1012l51 243q18 92 37 127q31 59 102 95l-8 -41q-59 -33 -90 -181l-51 -243h-41zM496 1012l51 243q18 92 37 127q31 59 102 95l-8 -41q-59 -33 -90 -181l-51 -243h-41z" />
<glyph unicode="&#x201d;" horiz-adv-x="432" d="M272 1012l9 41q57 33 88 180l53 244h41l-53 -244q-18 -92 -37 -127q-31 -59 -101 -94zM477 1012l8 41q57 33 88 180l54 244h41l-54 -244q-18 -92 -36 -127q-31 -59 -101 -94z" />
<glyph unicode="&#x201e;" horiz-adv-x="428" d="M4 -246l8 41q68 51 109 252q8 37 17 90t14 66h41l-43 -203q-41 -184 -146 -246zM209 -246l8 41q68 51 109 252q8 37 17 90t13 66h41l-43 -203q-41 -184 -145 -246z" />
<glyph unicode="&#x2022;" horiz-adv-x="845" d="M213 739q33 152 161 259.5t281 107.5q152 0 237 -107.5t52 -259.5q-31 -152 -162 -261t-282 -109q-154 0 -236 109.5t-51 260.5z" />
<glyph unicode="&#x2026;" horiz-adv-x="1568" d="M82 0l43 203h41l-43 -203h-41zM764 0l43 203h41l-43 -203h-41zM1446 0l43 203h41l-43 -203h-41z" />
<glyph unicode="&#x202f;" horiz-adv-x="385" />
<glyph unicode="&#x2039;" horiz-adv-x="296" d="M115 539l8 32l272 287l-16 -72l-219 -231l121 -231l-17 -74z" />
<glyph unicode="&#x203a;" horiz-adv-x="294" d="M133 250l17 74l219 231l-121 231l16 72l150 -287l-8 -32z" />
<glyph unicode="&#x205f;" horiz-adv-x="481" />
<glyph unicode="&#x2122;" horiz-adv-x="1775" d="M348 1436l8 41h656l-8 -41h-308l-174 -811h-41l174 811h-307zM1022 625l182 852h70l162 -795l501 795h70l-182 -852h-41l174 811h-4l-510 -811h-41l-162 811h-4l-174 -811h-41z" />
<glyph unicode="&#xe000;" horiz-adv-x="1064" d="M0 0v1065h1065v-1065h-1065z" />
</font>
</defs>
</svg>
